<?xml version="1.0" encoding="utf-8"?>
<!-- Generator: Adobe Illustrator 27.5.0, SVG Export Plug-In . SVG Version: 6.00 Build 0)  -->
<svg version="1.1" id="Layer_1" xmlns="http://www.w3.org/2000/svg" xmlns:xlink="http://www.w3.org/1999/xlink" x="0px" y="0px"
	 viewBox="0 0 371.625 301.381" style="enable-background:new 0 0 371.625 301.381;" xml:space="preserve">
<g>
	<g>
		<path style="fill:#FFFFFF;" d="M26.384,198.041c-0.781,1.604-1.195,3.382-1.202,5.16c-0.282,1.61-0.271,3.238,0.033,4.839
			c1.033,5.421,4.806,8.35,7.009,9.63l110.856,72.688c3.087,2.282,6.784,3.488,10.7,3.488c2.834,0,5.708-0.662,8.096-1.864
			c0.241-0.122,0.477-0.251,0.703-0.386l108.87-64.463c1.297-0.768,2.421-1.76,3.343-2.95l83.133-107.418
			c5.304-6.434,6.721-17.075-0.818-24.946c-0.118-0.131-0.241-0.26-0.39-0.409l-0.124-0.121c-0.524-0.521-1.058-0.986-1.625-1.422
			c-0.927-0.71-1.949-1.278-3.038-1.688l-0.408-0.153c-1.278-2.601-3.486-4.673-6.192-5.772c-5.376-2.183-10.63-4.302-15.731-6.35
			l-17.943-7.155c-7.1-2.812-14.413-5.684-21.737-8.539v0.001c-0.022-0.009-0.046-0.019-0.071-0.029
			c-0.006-0.003-0.012-0.005-0.018-0.007l-5.085-1.976c-21.339-8.28-38.304-14.652-48.751-18.529
			c-0.009-0.003-0.092-0.034-0.1-0.037c-2.691-1-5.071-1.877-7.152-2.641l-0.108-0.04c-2.628-0.966-4.697-1.721-6.22-2.273
			l-1.688-0.611v0.001c-0.035-0.012-0.07-0.024-0.102-0.036l-0.584-0.213c-0.008-0.003-0.038-0.013-0.061-0.022
			c-0.006-0.002-0.013-0.004-0.018-0.007c-0.008-0.002-0.015-0.004-0.017-0.005c-0.005-0.001-0.009-0.004-0.014-0.005l-0.09-0.032
			c-3.271-1.197-6.878-0.894-9.881,0.787l-26.73-9.842c-0.022-0.009-0.045-0.017-0.068-0.024c-0.02-0.008-0.04-0.016-0.061-0.022
			l-0.411-0.149c-0.007-0.003-0.015-0.005-0.023-0.008c0,0-0.001,0-0.004-0.001c-0.009-0.003-0.018-0.007-0.028-0.011l-1.513-0.543
			c-5.02-1.786-10.441-0.138-13.505,4.098l-0.316,0.415c-0.024,0.029-0.053,0.066-0.074,0.096l-0.087,0.116l-1.403,1.955
			c-0.182,0.261-0.371,0.537-0.556,0.809l-1.426,2.165c-0.013,0.018-0.117,0.177-0.121,0.182c-0.223,0.349-0.451,0.709-0.643,1.021
			c-0.014,0.02-0.075,0.117-0.088,0.138c-0.257,0.412-0.52,0.843-0.791,1.29l-0.181,0.302c-0.205,0.338-0.411,0.687-0.646,1.086
			l-0.232,0.398c-0.226,0.385-0.452,0.782-0.729,1.268l-0.126,0.221c-0.293,0.519-0.588,1.052-0.865,1.562l-0.165,0.304
			c-0.249,0.457-0.499,0.926-0.771,1.439l-0.234,0.449c-0.235,0.448-0.471,0.907-0.736,1.429l-0.212,0.417
			c-0.631,1.254-1.261,2.555-1.876,3.876l-0.249,0.543c-0.239,0.518-0.478,1.045-0.732,1.616l-0.248,0.559
			c-0.276,0.63-0.554,1.271-0.833,1.931l-0.108,0.251c-0.317,0.752-0.63,1.52-0.933,2.275l-0.204,0.519
			c-0.245,0.618-0.49,1.245-0.746,1.919l-0.239,0.636c-0.241,0.644-0.48,1.297-0.717,1.958l-0.191,0.532
			c-0.304,0.854-0.601,1.72-0.881,2.557l-0.096,0.294c-0.259,0.78-0.512,1.572-0.768,2.39l-0.219,0.713
			c-0.213,0.695-0.423,1.397-0.622,2.084l-0.212,0.732c-0.546,1.919-1.057,3.858-1.516,5.773l-0.162,0.688
			c-0.182,0.767-0.356,1.54-0.531,2.341l-0.178,0.82c-0.182,0.854-0.356,1.715-0.517,2.555l-0.108,0.546
			c-0.198,1.049-0.388,2.112-0.57,3.208l-0.084,0.529c-0.145,0.89-0.283,1.789-0.418,2.737l-0.053,0.346
			c-0.021,0.148-0.039,0.296-0.045,0.362c-0.361,2.618-0.654,5.291-0.864,7.867c-0.018,0.15-0.032,0.302-0.045,0.476l-0.037,0.545
			c-0.057,0.753-0.106,1.513-0.15,2.252l-0.065,1.106c-0.047,0.928-0.085,1.865-0.116,2.814l-0.02,0.57
			c-0.033,1.137-0.051,2.287-0.057,3.475l0.004,0.895c0.002,0.851,0.01,1.704,0.026,2.582l0.032,1.221
			c0.02,0.795,0.051,1.595,0.086,2.37c0.018,0.426,0.037,0.851,0.061,1.282c0.045,0.85,0.1,1.705,0.16,2.564l0.077,1.085
			c0.095,1.218,0.203,2.443,0.328,3.651l0.036,0.331c0.119,1.13,0.254,2.267,0.404,3.442l0.162,1.169
			c0.118,0.869,0.244,1.74,0.376,2.6c0.071,0.454,0.146,0.91,0.218,1.355c0.141,0.859,0.292,1.722,0.45,2.598l0.242,1.313
			c0.193,1.008,0.4,2.023,0.613,3.035l0.177,0.848c0.155,0.718,0.318,1.437,0.488,2.169c-28.18-3.324-59.172,1.274-83.615,12.497
			c-0.199,0.08-0.396,0.165-0.591,0.256c-0.271,0.127-0.541,0.258-0.805,0.389l-0.231,0.115c-0.672,0.319-1.338,0.642-2.004,0.975
			c-0.642,0.32-1.275,0.648-1.882,0.964l-0.274,0.14c-0.231,0.117-0.461,0.235-0.728,0.375c-0.23,0.124-0.46,0.249-0.681,0.372
			l-0.291,0.161c-0.534,0.293-1.064,0.591-1.589,0.889l-0.264,0.149c-0.28,0.156-0.558,0.314-0.847,0.482
			c-0.359,0.208-0.716,0.42-1.055,0.624c-0.433,0.258-0.858,0.521-1.301,0.793c-0.422,0.26-0.842,0.521-1.251,0.782l-0.153,0.098
			c-0.329,0.208-0.656,0.417-0.989,0.633c-0.283,0.186-0.563,0.373-0.843,0.561l-0.152,0.102c-0.47,0.316-0.934,0.637-1.408,0.966
			l-0.301,0.208c-0.289,0.198-0.576,0.397-0.891,0.622l-0.691,0.502c-0.479,0.348-0.947,0.704-1.408,1.056l-0.506,0.382
			c-0.283,0.211-0.566,0.424-0.844,0.642l-0.45,0.359c-0.572,0.452-1.13,0.919-1.679,1.378l-0.458,0.379
			c-0.263,0.214-0.524,0.43-0.718,0.596l-0.268,0.232c-1.078,0.935-2.063,1.825-3.009,2.725c-2.61,2.478-3.944,5.959-3.661,9.548
			c0.088,1.087,0.321,2.149,0.697,3.168c-0.072,0.739-0.075,1.482-0.009,2.221c-0.989,1.321-1.692,2.838-2.063,4.447
			C27.668,195.795,26.945,196.889,26.384,198.041z"/>
		<path style="fill:#F1F1F1;" d="M24.956,196.615c-0.781,1.602-1.194,3.382-1.201,5.16c-0.282,1.61-0.271,3.237,0.033,4.839
			c1.033,5.421,4.806,8.349,7.009,9.63l110.857,72.688c3.086,2.282,6.783,3.488,10.699,3.488c2.834,0,5.708-0.663,8.096-1.865
			c0.241-0.121,0.477-0.251,0.704-0.386l108.869-64.464c1.297-0.767,2.421-1.76,3.342-2.949l83.134-107.418
			c5.304-6.434,6.616-16.976-0.817-24.946c-0.119-0.129-0.242-0.259-0.391-0.407l-0.123-0.122c-0.525-0.521-1.058-0.987-1.627-1.422
			c-0.926-0.711-1.948-1.278-3.037-1.688l-0.407-0.153c-1.279-2.602-3.487-4.674-6.192-5.772c-5.377-2.183-10.63-4.303-15.73-6.35
			l-17.944-7.155c-7.1-2.812-14.413-5.685-21.736-8.539v0.001c-0.023-0.009-0.047-0.02-0.072-0.029
			c-0.007-0.002-0.012-0.004-0.018-0.007l-5.085-1.977c-21.339-8.279-38.333-14.57-48.752-18.528
			c-0.007-0.003-0.091-0.034-0.099-0.037c-2.683-1.021-5.071-1.876-7.152-2.642l-0.108-0.04c-2.628-0.966-4.697-1.72-6.22-2.272
			l-1.688-0.611l-0.001,0.002c-0.033-0.013-0.068-0.025-0.1-0.037l-0.585-0.212c-0.008-0.003-0.038-0.014-0.062-0.022
			c-0.006-0.003-0.013-0.005-0.018-0.007c-0.007-0.003-0.014-0.004-0.017-0.005c-0.004-0.001-0.009-0.003-0.014-0.004l-0.09-0.033
			c-3.272-1.198-6.878-0.893-9.882,0.788l-26.729-9.843c-0.023-0.008-0.045-0.016-0.068-0.024c-0.021-0.008-0.04-0.016-0.06-0.023
			l-0.412-0.148c-0.007-0.003-0.015-0.006-0.022-0.008c-0.002,0-0.002-0.001-0.004-0.001c-0.01-0.003-0.019-0.007-0.028-0.01
			l-1.513-0.543c-5.021-1.786-10.441-0.137-13.506,4.098l-0.315,0.416c-0.023,0.028-0.053,0.066-0.074,0.096l-0.087,0.116
			l-1.403,1.955c-0.182,0.26-0.371,0.537-0.556,0.809l-1.426,2.165c-0.014,0.018-0.117,0.177-0.12,0.181
			c-0.218,0.354-0.452,0.711-0.643,1.022c-0.015,0.021-0.076,0.117-0.089,0.138c-0.257,0.411-0.52,0.843-0.791,1.29l-0.181,0.302
			c-0.204,0.339-0.411,0.688-0.645,1.086l-0.232,0.399c-0.225,0.385-0.452,0.783-0.729,1.269l-0.126,0.219
			c-0.292,0.518-0.588,1.053-0.865,1.561l-0.165,0.304c-0.249,0.458-0.499,0.927-0.771,1.44l-0.233,0.449
			c-0.236,0.449-0.473,0.907-0.737,1.429l-0.212,0.417c-0.631,1.255-1.261,2.556-1.876,3.877l-0.249,0.542
			c-0.24,0.519-0.479,1.045-0.732,1.617l-0.248,0.559c-0.277,0.63-0.554,1.271-0.834,1.93l-0.107,0.251
			c-0.316,0.752-0.63,1.519-0.932,2.275l-0.205,0.518c-0.245,0.619-0.489,1.246-0.746,1.92l-0.239,0.636
			c-0.241,0.643-0.481,1.297-0.717,1.957l-0.192,0.532c-0.303,0.854-0.6,1.719-0.879,2.558l-0.097,0.293
			c-0.259,0.78-0.512,1.573-0.769,2.39l-0.218,0.713c-0.213,0.694-0.423,1.396-0.621,2.084l-0.213,0.731
			c-0.546,1.919-1.056,3.859-1.516,5.773l-0.161,0.688c-0.182,0.767-0.357,1.541-0.532,2.341l-0.177,0.821
			c-0.182,0.854-0.356,1.715-0.518,2.554l-0.108,0.547c-0.198,1.049-0.388,2.112-0.571,3.209l-0.082,0.528
			c-0.146,0.891-0.284,1.789-0.42,2.738l-0.052,0.346c-0.021,0.148-0.04,0.296-0.044,0.361c-0.362,2.618-0.655,5.291-0.865,7.867
			c-0.018,0.15-0.032,0.302-0.044,0.476l-0.038,0.546c-0.057,0.753-0.107,1.512-0.15,2.252l-0.065,1.105
			c-0.047,0.929-0.085,1.865-0.116,2.814l-0.02,0.57c-0.033,1.138-0.052,2.288-0.056,3.475l0.004,0.895
			c0.001,0.851,0.009,1.704,0.025,2.582l0.031,1.221c0.023,0.795,0.052,1.596,0.087,2.37c0.019,0.425,0.037,0.851,0.061,1.282
			c0.045,0.85,0.1,1.706,0.16,2.564l0.078,1.085c0.093,1.218,0.202,2.442,0.327,3.651l0.037,0.33
			c0.119,1.13,0.253,2.268,0.404,3.442l0.16,1.169c0.119,0.869,0.244,1.741,0.378,2.6c0.069,0.454,0.144,0.911,0.218,1.354
			c0.14,0.859,0.291,1.723,0.449,2.599l0.243,1.313c0.192,1.009,0.4,2.023,0.612,3.035l0.177,0.848
			c0.155,0.717,0.318,1.436,0.488,2.168c-28.18-3.324-59.172,1.275-83.615,12.498c-0.199,0.079-0.396,0.165-0.591,0.255
			c-0.271,0.126-0.54,0.258-0.805,0.389l-0.232,0.115c-0.67,0.318-1.338,0.642-2.004,0.975c-0.64,0.32-1.274,0.647-1.881,0.965
			l-0.274,0.14c-0.232,0.116-0.463,0.234-0.728,0.375c-0.231,0.124-0.461,0.249-0.681,0.372l-0.292,0.161
			c-0.534,0.292-1.065,0.591-1.589,0.889l-0.264,0.15c-0.279,0.157-0.558,0.314-0.847,0.482c-0.358,0.209-0.715,0.42-1.056,0.624
			c-0.431,0.257-0.857,0.52-1.3,0.793c-0.422,0.26-0.842,0.52-1.251,0.781l-0.153,0.098c-0.329,0.208-0.656,0.417-0.989,0.634
			c-0.283,0.186-0.563,0.372-0.843,0.56l-0.152,0.103c-0.47,0.315-0.935,0.637-1.408,0.965l-0.302,0.209
			c-0.288,0.199-0.576,0.397-0.891,0.622l-0.691,0.502c-0.479,0.348-0.947,0.704-1.409,1.055l-0.504,0.383
			c-0.284,0.211-0.567,0.424-0.845,0.642l-0.45,0.359c-0.572,0.453-1.131,0.918-1.679,1.377l-0.458,0.381
			c-0.263,0.213-0.524,0.429-0.718,0.596l-0.267,0.231c-1.078,0.935-2.062,1.826-3.009,2.726c-2.61,2.479-3.943,5.959-3.66,9.548
			c0.086,1.087,0.32,2.15,0.696,3.169c-0.073,0.739-0.074,1.481-0.008,2.221c-0.989,1.321-1.693,2.838-2.065,4.447
			C26.241,194.369,25.52,195.462,24.956,196.615z"/>
		<path style="fill:#E2E2E2;" d="M23.53,195.189c-0.781,1.602-1.194,3.381-1.201,5.159c-0.282,1.611-0.271,3.238,0.033,4.84
			c1.033,5.421,4.806,8.349,7.008,9.629l110.858,72.688c3.085,2.282,6.783,3.488,10.699,3.488c2.833,0,5.708-0.662,8.096-1.864
			c0.241-0.122,0.477-0.252,0.704-0.386l108.869-64.463c1.297-0.768,2.421-1.76,3.342-2.95l83.134-107.418
			c5.304-6.435,6.614-16.976-0.817-24.946c-0.121-0.129-0.242-0.26-0.391-0.408l-0.123-0.121c-0.525-0.521-1.058-0.986-1.627-1.423
			c-0.926-0.71-1.948-1.278-3.037-1.688l-0.407-0.154c-1.279-2.602-3.487-4.673-6.192-5.771c-5.377-2.184-10.631-4.303-15.732-6.35
			l-17.943-7.155c-7.099-2.812-14.412-5.685-21.735-8.539v0.001c-0.023-0.01-0.048-0.021-0.072-0.029
			c-0.007-0.002-0.013-0.005-0.018-0.007l-5.085-1.977c-21.339-8.28-38.334-14.57-48.752-18.529
			c-0.008-0.003-0.091-0.033-0.099-0.037c-2.684-1.02-5.071-1.876-7.152-2.641l-0.108-0.04c-2.628-0.966-4.697-1.721-6.22-2.272
			l-1.688-0.612l-0.001,0.003c-0.033-0.013-0.068-0.025-0.1-0.037l-0.585-0.212c-0.009-0.003-0.038-0.014-0.062-0.022
			c-0.006-0.003-0.013-0.005-0.018-0.007c-0.007-0.003-0.013-0.004-0.016-0.005c-0.005-0.001-0.009-0.003-0.014-0.004l-0.09-0.033
			c-3.272-1.197-6.878-0.894-9.882,0.788l-26.729-9.843c-0.023-0.008-0.046-0.016-0.068-0.024c-0.02-0.008-0.04-0.015-0.061-0.023
			l-0.411-0.148c-0.007-0.003-0.015-0.005-0.023-0.009c0,0-0.002,0-0.003-0.001c-0.01-0.003-0.019-0.007-0.028-0.01l-1.514-0.544
			c-5.021-1.786-10.441-0.138-13.505,4.098l-0.316,0.415c-0.022,0.029-0.052,0.067-0.074,0.097l-0.086,0.116l-1.403,1.955
			c-0.183,0.261-0.371,0.537-0.556,0.81l-1.426,2.164c-0.014,0.018-0.117,0.178-0.12,0.183c-0.219,0.352-0.453,0.709-0.644,1.021
			c-0.014,0.02-0.075,0.116-0.088,0.138c-0.257,0.411-0.521,0.843-0.791,1.29l-0.181,0.302c-0.204,0.338-0.411,0.687-0.646,1.085
			l-0.232,0.399c-0.225,0.385-0.453,0.783-0.73,1.268l-0.125,0.22c-0.292,0.518-0.588,1.053-0.865,1.561l-0.165,0.304
			c-0.249,0.457-0.499,0.927-0.771,1.439l-0.233,0.449c-0.236,0.448-0.473,0.908-0.738,1.429l-0.211,0.417
			c-0.631,1.254-1.261,2.556-1.876,3.877l-0.249,0.542c-0.24,0.519-0.479,1.045-0.732,1.617l-0.249,0.559
			c-0.276,0.63-0.553,1.27-0.833,1.931l-0.107,0.25c-0.316,0.752-0.63,1.52-0.933,2.275l-0.205,0.519
			c-0.245,0.618-0.488,1.245-0.745,1.919l-0.24,0.635c-0.24,0.644-0.48,1.298-0.716,1.958l-0.192,0.532
			c-0.303,0.854-0.6,1.719-0.879,2.557l-0.097,0.293c-0.259,0.78-0.512,1.572-0.768,2.391l-0.218,0.713
			c-0.213,0.693-0.423,1.396-0.622,2.084l-0.212,0.731c-0.546,1.92-1.056,3.859-1.516,5.773l-0.161,0.688
			c-0.183,0.766-0.357,1.541-0.532,2.34l-0.177,0.821c-0.182,0.854-0.357,1.715-0.518,2.555l-0.109,0.547
			c-0.197,1.049-0.387,2.111-0.57,3.208l-0.083,0.528c-0.146,0.891-0.283,1.789-0.419,2.737l-0.052,0.346
			c-0.021,0.148-0.04,0.295-0.046,0.362c-0.36,2.617-0.653,5.291-0.863,7.867c-0.018,0.15-0.032,0.302-0.045,0.476l-0.037,0.546
			c-0.057,0.753-0.107,1.511-0.15,2.252l-0.065,1.105c-0.047,0.929-0.085,1.865-0.117,2.814l-0.02,0.57
			c-0.032,1.137-0.051,2.288-0.055,3.475l0.003,0.895c0.002,0.85,0.01,1.704,0.026,2.582l0.031,1.22
			c0.022,0.796,0.051,1.596,0.086,2.371c0.02,0.425,0.037,0.85,0.061,1.283c0.045,0.85,0.1,1.704,0.16,2.563l0.077,1.086
			c0.094,1.217,0.203,2.442,0.328,3.651l0.037,0.33c0.118,1.13,0.253,2.267,0.404,3.442l0.16,1.169
			c0.119,0.869,0.244,1.74,0.378,2.599c0.069,0.455,0.144,0.911,0.217,1.355c0.141,0.859,0.292,1.723,0.45,2.598l0.242,1.312
			c0.193,1.009,0.4,2.024,0.613,3.035l0.176,0.848c0.156,0.718,0.318,1.437,0.489,2.169c-28.18-3.324-59.172,1.275-83.616,12.498
			c-0.198,0.079-0.395,0.164-0.591,0.256c-0.271,0.126-0.54,0.257-0.804,0.388l-0.233,0.115c-0.671,0.318-1.338,0.641-2.004,0.974
			c-0.641,0.321-1.274,0.648-1.881,0.965l-0.274,0.14c-0.231,0.117-0.462,0.234-0.727,0.376c-0.231,0.123-0.462,0.249-0.682,0.372
			l-0.291,0.16c-0.534,0.294-1.065,0.592-1.589,0.889l-0.264,0.149c-0.279,0.157-0.558,0.314-0.848,0.482
			c-0.357,0.209-0.714,0.421-1.055,0.624c-0.431,0.258-0.858,0.521-1.301,0.794c-0.421,0.259-0.841,0.52-1.25,0.781l-0.153,0.097
			c-0.329,0.208-0.657,0.417-0.989,0.634c-0.283,0.186-0.563,0.372-0.843,0.561l-0.152,0.102c-0.471,0.315-0.935,0.636-1.408,0.965
			l-0.302,0.209c-0.288,0.199-0.576,0.397-0.891,0.622l-0.691,0.503c-0.478,0.348-0.947,0.703-1.408,1.055l-0.505,0.382
			c-0.283,0.212-0.566,0.425-0.844,0.643l-0.451,0.358c-0.571,0.453-1.13,0.919-1.678,1.378l-0.458,0.38
			c-0.263,0.214-0.524,0.43-0.718,0.596l-0.268,0.232c-1.078,0.934-2.062,1.826-3.009,2.725c-2.611,2.479-3.944,5.959-3.66,9.548
			c0.086,1.087,0.32,2.151,0.695,3.169c-0.072,0.74-0.074,1.482-0.007,2.221c-0.989,1.322-1.693,2.838-2.065,4.448
			C24.815,192.942,24.093,194.036,23.53,195.189z"/>
		<path style="fill:#D4D4D4;" d="M22.104,193.763c-0.781,1.603-1.195,3.382-1.201,5.16c-0.282,1.611-0.271,3.237,0.033,4.84
			c1.032,5.42,4.806,8.349,7.008,9.63l110.858,72.688c3.085,2.282,6.783,3.487,10.699,3.487c2.833,0,5.707-0.661,8.096-1.863
			c0.241-0.122,0.478-0.252,0.704-0.387l108.869-64.462c1.296-0.769,2.421-1.76,3.342-2.95l83.134-107.418
			c5.304-6.434,6.614-16.975-0.817-24.946c-0.121-0.129-0.242-0.26-0.391-0.408l-0.123-0.121c-0.525-0.521-1.059-0.987-1.627-1.422
			c-0.926-0.71-1.948-1.278-3.037-1.688l-0.407-0.153c-1.279-2.602-3.487-4.673-6.192-5.771c-5.377-2.184-10.631-4.304-15.732-6.351
			l-17.943-7.155c-7.099-2.812-14.412-5.685-21.735-8.539v0.001c-0.023-0.01-0.048-0.02-0.072-0.029
			c-0.007-0.002-0.013-0.004-0.017-0.007l-5.085-1.976c-21.339-8.28-38.334-14.57-48.752-18.529c-0.008-0.003-0.091-0.034-0.1-0.037
			c-2.684-1.02-5.07-1.877-7.151-2.641l-0.108-0.04c-2.629-0.965-4.697-1.721-6.22-2.273l-1.688-0.611l-0.001,0.002
			c-0.033-0.013-0.068-0.025-0.1-0.037l-0.585-0.213c-0.009-0.003-0.038-0.014-0.063-0.023c-0.005-0.001-0.012-0.003-0.018-0.005
			c-0.007-0.003-0.013-0.005-0.016-0.006c-0.005-0.002-0.009-0.003-0.014-0.005l-0.09-0.032c-3.273-1.197-6.879-0.894-9.882,0.787
			l-26.729-9.843c-0.023-0.008-0.046-0.016-0.068-0.023c-0.021-0.008-0.04-0.017-0.061-0.023l-0.411-0.148
			c-0.008-0.003-0.015-0.006-0.023-0.009c0,0-0.002-0.001-0.004-0.001c-0.009-0.003-0.019-0.007-0.027-0.011l-1.515-0.543
			c-5.02-1.786-10.44-0.138-13.505,4.098l-0.316,0.415c-0.023,0.028-0.052,0.066-0.074,0.096l-0.086,0.116l-1.403,1.955
			c-0.183,0.261-0.371,0.537-0.556,0.808l-1.427,2.166c-0.013,0.019-0.116,0.177-0.119,0.182c-0.219,0.353-0.453,0.71-0.644,1.022
			c-0.015,0.021-0.075,0.116-0.089,0.137c-0.256,0.411-0.52,0.843-0.79,1.29l-0.181,0.301c-0.204,0.339-0.411,0.688-0.645,1.086
			l-0.232,0.399c-0.225,0.385-0.453,0.782-0.73,1.268l-0.125,0.22c-0.292,0.519-0.588,1.052-0.865,1.561l-0.165,0.303
			c-0.249,0.458-0.5,0.927-0.771,1.441l-0.233,0.449c-0.237,0.448-0.473,0.907-0.738,1.429l-0.211,0.417
			c-0.631,1.254-1.261,2.555-1.876,3.877l-0.25,0.541c-0.239,0.518-0.478,1.045-0.732,1.617l-0.249,0.558
			c-0.276,0.631-0.553,1.271-0.833,1.931l-0.107,0.251c-0.316,0.752-0.63,1.519-0.933,2.275l-0.205,0.518
			c-0.245,0.619-0.489,1.246-0.746,1.92l-0.239,0.636c-0.241,0.643-0.48,1.296-0.716,1.957l-0.192,0.532
			c-0.303,0.854-0.6,1.72-0.879,2.557l-0.097,0.293c-0.259,0.78-0.513,1.572-0.769,2.39l-0.218,0.712
			c-0.214,0.694-0.423,1.396-0.622,2.085l-0.212,0.731c-0.547,1.919-1.056,3.858-1.516,5.773l-0.162,0.688
			c-0.182,0.766-0.357,1.541-0.531,2.341l-0.177,0.821c-0.183,0.854-0.356,1.715-0.518,2.554l-0.109,0.546
			c-0.197,1.049-0.387,2.111-0.57,3.209l-0.084,0.529c-0.145,0.89-0.282,1.788-0.418,2.737l-0.052,0.346
			c-0.021,0.148-0.04,0.297-0.046,0.362c-0.36,2.618-0.653,5.291-0.863,7.867c-0.018,0.15-0.032,0.303-0.046,0.476l-0.037,0.546
			c-0.057,0.752-0.106,1.512-0.149,2.251l-0.065,1.106c-0.048,0.929-0.085,1.864-0.117,2.813l-0.021,0.571
			c-0.032,1.137-0.051,2.288-0.056,3.474l0.004,0.896c0.002,0.851,0.01,1.704,0.026,2.582l0.031,1.22
			c0.022,0.796,0.051,1.596,0.086,2.37c0.018,0.425,0.037,0.851,0.061,1.282c0.045,0.85,0.1,1.705,0.159,2.563l0.077,1.086
			c0.095,1.218,0.203,2.443,0.329,3.651l0.037,0.331c0.118,1.13,0.253,2.267,0.404,3.442l0.16,1.17
			c0.119,0.87,0.244,1.741,0.378,2.6c0.069,0.455,0.144,0.91,0.217,1.354c0.141,0.859,0.292,1.723,0.45,2.598l0.242,1.313
			c0.193,1.009,0.399,2.024,0.613,3.035l0.176,0.848c0.156,0.718,0.318,1.437,0.489,2.168c-28.18-3.324-59.172,1.275-83.616,12.498
			c-0.198,0.08-0.395,0.165-0.591,0.255c-0.271,0.126-0.54,0.258-0.804,0.389l-0.232,0.114c-0.671,0.319-1.338,0.642-2.004,0.974
			c-0.641,0.32-1.274,0.648-1.881,0.966l-0.274,0.139c-0.231,0.117-0.463,0.234-0.728,0.375c-0.23,0.124-0.461,0.25-0.681,0.373
			l-0.291,0.16c-0.534,0.293-1.065,0.591-1.589,0.889l-0.264,0.149c-0.279,0.157-0.558,0.313-0.848,0.482
			c-0.357,0.209-0.714,0.421-1.055,0.624c-0.432,0.257-0.857,0.52-1.301,0.794c-0.421,0.259-0.841,0.52-1.25,0.781l-0.153,0.097
			c-0.329,0.209-0.657,0.417-0.989,0.635c-0.283,0.186-0.563,0.372-0.843,0.56l-0.152,0.102c-0.471,0.315-0.935,0.637-1.408,0.965
			l-0.302,0.208c-0.288,0.199-0.576,0.398-0.891,0.622l-0.691,0.502c-0.478,0.349-0.947,0.704-1.408,1.056l-0.506,0.382
			c-0.282,0.212-0.565,0.425-0.843,0.642l-0.451,0.359c-0.571,0.453-1.13,0.919-1.678,1.378l-0.459,0.379
			c-0.263,0.214-0.524,0.43-0.717,0.596l-0.269,0.231c-1.078,0.935-2.061,1.826-3.008,2.726c-2.611,2.479-3.944,5.959-3.66,9.548
			c0.086,1.087,0.32,2.15,0.695,3.169c-0.072,0.739-0.074,1.481-0.007,2.22c-0.989,1.321-1.693,2.838-2.065,4.446
			C23.39,191.518,22.667,192.61,22.104,193.763z"/>
		<path style="fill:#C5C5C5;" d="M20.679,192.336c-0.781,1.603-1.195,3.381-1.201,5.16c-0.282,1.611-0.272,3.238,0.033,4.839
			c1.032,5.42,4.806,8.35,7.008,9.63l110.857,72.687c3.086,2.282,6.784,3.488,10.7,3.488c2.833,0,5.707-0.662,8.095-1.864
			c0.242-0.123,0.479-0.251,0.705-0.387l108.869-64.463c1.296-0.768,2.421-1.759,3.342-2.949l83.133-107.418
			c5.305-6.435,6.615-16.975-0.816-24.946c-0.121-0.129-0.242-0.26-0.391-0.408l-0.124-0.121c-0.524-0.521-1.058-0.986-1.626-1.422
			c-0.926-0.709-1.948-1.278-3.037-1.688l-0.407-0.153c-1.28-2.602-3.487-4.674-6.193-5.772c-5.376-2.183-10.63-4.303-15.732-6.351
			l-17.943-7.154c-7.099-2.813-14.412-5.684-21.735-8.539v0.001c-0.023-0.009-0.048-0.019-0.072-0.029
			c-0.007-0.003-0.013-0.004-0.018-0.007l-5.084-1.977c-21.339-8.28-38.334-14.57-48.752-18.529c-0.008-0.003-0.091-0.034-0.1-0.037
			c-2.684-1.02-5.07-1.877-7.151-2.642l-0.108-0.04c-2.629-0.966-4.697-1.72-6.22-2.273l-1.688-0.611l-0.001,0.002
			c-0.033-0.012-0.068-0.025-0.101-0.037l-0.584-0.212c-0.009-0.003-0.038-0.014-0.063-0.023c-0.005-0.003-0.012-0.005-0.018-0.007
			c-0.007-0.002-0.013-0.005-0.016-0.005c-0.005-0.001-0.009-0.003-0.014-0.004l-0.091-0.033c-3.271-1.197-6.878-0.893-9.881,0.788
			l-26.729-9.843c-0.023-0.008-0.046-0.017-0.069-0.024c-0.021-0.007-0.04-0.016-0.06-0.022l-0.411-0.149
			c-0.008-0.002-0.015-0.005-0.023-0.008c-0.001-0.001-0.002-0.001-0.004-0.002c-0.009-0.003-0.019-0.006-0.027-0.01l-1.515-0.544
			c-5.02-1.786-10.441-0.137-13.505,4.098l-0.315,0.416c-0.023,0.028-0.052,0.066-0.074,0.095l-0.086,0.116l-1.404,1.956
			c-0.182,0.261-0.371,0.536-0.556,0.808l-1.426,2.166c-0.013,0.017-0.116,0.177-0.119,0.181c-0.22,0.353-0.453,0.711-0.645,1.022
			c-0.014,0.021-0.075,0.117-0.088,0.138c-0.256,0.411-0.521,0.842-0.79,1.29l-0.182,0.302c-0.203,0.338-0.41,0.687-0.645,1.085
			l-0.231,0.399c-0.225,0.386-0.453,0.783-0.73,1.269l-0.125,0.22c-0.292,0.519-0.589,1.052-0.866,1.561l-0.165,0.304
			c-0.248,0.458-0.499,0.927-0.77,1.439l-0.233,0.449c-0.237,0.449-0.473,0.907-0.738,1.429l-0.211,0.417
			c-0.631,1.254-1.261,2.555-1.876,3.876l-0.25,0.543c-0.239,0.518-0.478,1.044-0.732,1.616l-0.249,0.56
			c-0.276,0.63-0.553,1.271-0.833,1.93l-0.107,0.251c-0.316,0.752-0.63,1.521-0.933,2.275l-0.205,0.519
			c-0.245,0.618-0.489,1.246-0.746,1.92l-0.239,0.635c-0.241,0.644-0.48,1.297-0.716,1.957l-0.192,0.533
			c-0.303,0.853-0.6,1.719-0.879,2.557l-0.097,0.293c-0.259,0.78-0.513,1.573-0.769,2.39l-0.218,0.712
			c-0.214,0.695-0.423,1.397-0.623,2.084l-0.211,0.732c-0.547,1.92-1.056,3.859-1.517,5.774l-0.161,0.688
			c-0.182,0.766-0.356,1.54-0.531,2.34l-0.178,0.82c-0.182,0.854-0.355,1.715-0.518,2.555l-0.108,0.547
			c-0.197,1.049-0.387,2.112-0.57,3.208l-0.084,0.529c-0.145,0.89-0.282,1.788-0.418,2.737l-0.052,0.347
			c-0.022,0.147-0.04,0.295-0.046,0.361c-0.36,2.618-0.654,5.291-0.863,7.866c-0.018,0.151-0.033,0.303-0.046,0.477l-0.037,0.546
			c-0.057,0.753-0.106,1.512-0.15,2.252l-0.064,1.106c-0.048,0.929-0.086,1.865-0.117,2.813l-0.021,0.571
			c-0.032,1.137-0.051,2.287-0.056,3.475l0.004,0.894c0.002,0.85,0.009,1.704,0.026,2.582l0.031,1.221
			c0.022,0.795,0.051,1.596,0.086,2.369c0.019,0.426,0.037,0.851,0.062,1.283c0.044,0.849,0.1,1.705,0.159,2.563l0.077,1.085
			c0.095,1.218,0.203,2.444,0.329,3.652l0.037,0.33c0.118,1.13,0.253,2.267,0.404,3.442l0.16,1.169
			c0.119,0.869,0.244,1.74,0.378,2.6c0.069,0.455,0.144,0.91,0.217,1.354c0.14,0.86,0.291,1.723,0.45,2.599l0.242,1.312
			c0.192,1.009,0.399,2.025,0.613,3.035l0.176,0.847c0.156,0.718,0.318,1.438,0.489,2.169c-28.181-3.324-59.172,1.275-83.616,12.498
			c-0.198,0.08-0.395,0.165-0.591,0.256c-0.271,0.126-0.54,0.257-0.804,0.388l-0.232,0.115c-0.671,0.319-1.338,0.642-2.004,0.975
			c-0.641,0.32-1.274,0.648-1.882,0.965l-0.273,0.14c-0.231,0.116-0.463,0.233-0.727,0.375c-0.232,0.123-0.461,0.25-0.681,0.372
			l-0.291,0.161c-0.534,0.292-1.065,0.591-1.59,0.889l-0.263,0.149c-0.279,0.156-0.558,0.313-0.848,0.482
			c-0.357,0.209-0.714,0.42-1.055,0.623c-0.432,0.258-0.858,0.52-1.301,0.794c-0.421,0.259-0.842,0.521-1.25,0.781l-0.153,0.098
			c-0.329,0.209-0.657,0.417-0.989,0.634c-0.284,0.186-0.563,0.373-0.844,0.561l-0.151,0.102c-0.471,0.315-0.935,0.638-1.408,0.966
			l-0.302,0.208c-0.289,0.199-0.576,0.398-0.891,0.622l-0.691,0.502c-0.478,0.348-0.947,0.704-1.408,1.056l-0.506,0.382
			c-0.283,0.211-0.565,0.424-0.843,0.642l-0.451,0.358c-0.571,0.453-1.13,0.919-1.679,1.379l-0.458,0.379
			c-0.263,0.214-0.524,0.43-0.717,0.597l-0.269,0.231c-1.078,0.935-2.062,1.825-3.008,2.726c-2.611,2.479-3.944,5.959-3.66,9.548
			c0.086,1.088,0.32,2.15,0.695,3.168c-0.072,0.74-0.074,1.482-0.007,2.221c-0.989,1.321-1.693,2.838-2.066,4.446
			C21.964,190.09,21.241,191.184,20.679,192.336z"/>
		<path style="fill:#B7B7B7;" d="M19.252,190.911c-0.781,1.603-1.195,3.381-1.202,5.16c-0.281,1.611-0.271,3.237,0.034,4.839
			c1.032,5.42,4.806,8.349,7.008,9.63l110.857,72.688c3.086,2.282,6.784,3.488,10.7,3.488c2.833,0,5.707-0.662,8.096-1.864
			c0.24-0.122,0.477-0.251,0.703-0.387l108.87-64.463c1.296-0.767,2.421-1.759,3.342-2.949l83.134-107.418
			c5.304-6.434,6.615-16.975-0.818-24.946c-0.12-0.129-0.242-0.26-0.391-0.408l-0.123-0.121c-0.525-0.521-1.058-0.987-1.626-1.423
			c-0.926-0.71-1.948-1.278-3.036-1.688l-0.408-0.153c-1.279-2.603-3.488-4.673-6.193-5.772c-5.376-2.183-10.63-4.303-15.731-6.351
			l-17.943-7.155c-7.099-2.812-14.412-5.685-21.735-8.539v0.001c-0.023-0.01-0.047-0.02-0.072-0.029
			c-0.007-0.002-0.013-0.005-0.018-0.007l-5.086-1.976c-21.338-8.28-38.334-14.571-48.751-18.529c-0.009-0.003-0.09-0.033-0.1-0.036
			c-2.683-1.021-5.07-1.877-7.151-2.642l-0.108-0.04c-2.629-0.966-4.697-1.721-6.22-2.273l-1.688-0.61l-0.001,0.002
			c-0.033-0.013-0.069-0.025-0.101-0.037l-0.584-0.212c-0.009-0.003-0.038-0.013-0.063-0.023c-0.006-0.002-0.012-0.003-0.018-0.006
			c-0.008-0.003-0.013-0.005-0.016-0.006c-0.005-0.002-0.01-0.003-0.014-0.005l-0.09-0.032c-3.272-1.198-6.878-0.894-9.882,0.788
			l-26.729-9.842c-0.023-0.008-0.045-0.017-0.068-0.024c-0.02-0.007-0.04-0.016-0.061-0.022l-0.41-0.149
			c-0.008-0.002-0.016-0.005-0.023-0.008c0,0-0.002-0.001-0.004-0.001c-0.009-0.003-0.019-0.007-0.027-0.01l-1.515-0.543
			c-5.019-1.786-10.44-0.138-13.505,4.098l-0.315,0.415c-0.023,0.029-0.052,0.066-0.074,0.096l-0.086,0.116l-1.404,1.955
			c-0.182,0.261-0.371,0.537-0.556,0.809l-1.426,2.165c-0.013,0.018-0.116,0.177-0.119,0.182c-0.219,0.353-0.453,0.711-0.645,1.023
			c-0.014,0.02-0.075,0.117-0.088,0.138c-0.256,0.411-0.52,0.843-0.79,1.29l-0.182,0.301c-0.204,0.338-0.411,0.688-0.646,1.086
			l-0.231,0.399c-0.225,0.385-0.453,0.782-0.729,1.268l-0.125,0.22c-0.293,0.519-0.588,1.052-0.866,1.561l-0.165,0.304
			c-0.248,0.458-0.499,0.927-0.77,1.439l-0.234,0.449c-0.236,0.448-0.471,0.907-0.737,1.429l-0.212,0.417
			c-0.629,1.254-1.26,2.556-1.875,3.876l-0.25,0.543c-0.239,0.518-0.477,1.045-0.73,1.616l-0.25,0.559
			c-0.276,0.631-0.553,1.271-0.833,1.931l-0.107,0.25c-0.316,0.752-0.63,1.52-0.933,2.276l-0.204,0.518
			c-0.246,0.619-0.49,1.246-0.747,1.92l-0.239,0.635c-0.24,0.643-0.48,1.297-0.715,1.958l-0.193,0.531
			c-0.304,0.854-0.6,1.72-0.88,2.558l-0.096,0.292c-0.26,0.781-0.513,1.573-0.769,2.391l-0.218,0.712
			c-0.214,0.694-0.424,1.397-0.623,2.085l-0.211,0.731c-0.547,1.919-1.056,3.859-1.517,5.773l-0.161,0.688
			c-0.182,0.767-0.357,1.54-0.531,2.341l-0.178,0.82c-0.182,0.854-0.355,1.714-0.518,2.554l-0.108,0.547
			c-0.197,1.05-0.387,2.112-0.57,3.209l-0.084,0.528c-0.145,0.891-0.282,1.79-0.418,2.738l-0.051,0.346
			c-0.022,0.147-0.041,0.296-0.047,0.362c-0.36,2.617-0.654,5.29-0.863,7.866c-0.018,0.151-0.033,0.302-0.046,0.476l-0.037,0.546
			c-0.057,0.752-0.106,1.512-0.15,2.251l-0.064,1.106c-0.048,0.929-0.086,1.864-0.117,2.813l-0.021,0.57
			c-0.032,1.137-0.051,2.287-0.056,3.475l0.004,0.896c0.002,0.85,0.009,1.704,0.025,2.582l0.032,1.221
			c0.023,0.795,0.052,1.595,0.086,2.369c0.019,0.425,0.037,0.851,0.062,1.282c0.045,0.85,0.1,1.705,0.159,2.564l0.077,1.085
			c0.095,1.219,0.204,2.443,0.328,3.652l0.037,0.331c0.119,1.13,0.254,2.267,0.405,3.441l0.16,1.17
			c0.118,0.869,0.244,1.74,0.378,2.599c0.069,0.455,0.144,0.911,0.217,1.354c0.14,0.86,0.291,1.724,0.45,2.599l0.242,1.313
			c0.192,1.009,0.4,2.024,0.612,3.035l0.177,0.848c0.156,0.718,0.318,1.438,0.489,2.169c-28.18-3.324-59.172,1.275-83.616,12.498
			c-0.198,0.079-0.396,0.164-0.591,0.255c-0.271,0.126-0.54,0.258-0.805,0.389l-0.231,0.115c-0.671,0.319-1.338,0.641-2.003,0.974
			c-0.643,0.32-1.275,0.648-1.883,0.965l-0.274,0.14c-0.232,0.117-0.462,0.234-0.727,0.376c-0.231,0.123-0.461,0.25-0.681,0.372
			l-0.291,0.161c-0.535,0.293-1.065,0.592-1.59,0.889l-0.264,0.149c-0.279,0.157-0.557,0.314-0.847,0.482
			c-0.358,0.21-0.714,0.421-1.055,0.624c-0.432,0.258-0.858,0.52-1.3,0.793c-0.422,0.26-0.843,0.521-1.252,0.781l-0.152,0.098
			c-0.33,0.208-0.657,0.417-0.989,0.634c-0.284,0.186-0.563,0.372-0.843,0.561l-0.152,0.102c-0.471,0.315-0.935,0.637-1.408,0.966
			l-0.302,0.208c-0.289,0.198-0.576,0.398-0.891,0.622l-0.691,0.502c-0.478,0.348-0.947,0.704-1.408,1.056l-0.506,0.382
			c-0.282,0.212-0.565,0.425-0.842,0.642l-0.452,0.359c-0.571,0.453-1.13,0.919-1.679,1.378l-0.458,0.38
			c-0.262,0.214-0.524,0.43-0.717,0.596l-0.268,0.231c-1.078,0.934-2.062,1.826-3.009,2.725c-2.61,2.479-3.943,5.959-3.659,9.548
			c0.087,1.087,0.319,2.15,0.695,3.169c-0.072,0.74-0.074,1.482-0.007,2.221c-0.989,1.322-1.693,2.838-2.065,4.447
			C20.536,188.665,19.813,189.758,19.252,190.911z"/>
		<path style="fill:#A8A8A8;" d="M17.826,189.484c-0.781,1.602-1.195,3.382-1.202,5.16c-0.281,1.61-0.271,3.237,0.034,4.839
			c1.032,5.421,4.806,8.349,7.008,9.63l110.857,72.688c3.086,2.282,6.784,3.489,10.7,3.489c2.833,0,5.707-0.663,8.095-1.865
			c0.241-0.121,0.478-0.251,0.704-0.386l108.87-64.463c1.296-0.768,2.42-1.761,3.342-2.95l83.133-107.418
			c5.304-6.435,6.615-16.976-0.817-24.946c-0.12-0.129-0.242-0.259-0.391-0.409l-0.123-0.121c-0.525-0.521-1.058-0.987-1.626-1.423
			c-0.926-0.709-1.948-1.277-3.038-1.688l-0.407-0.153c-1.279-2.601-3.487-4.673-6.192-5.772c-5.376-2.183-10.63-4.302-15.731-6.35
			l-17.943-7.155c-7.099-2.812-14.412-5.685-21.735-8.539v0c-0.023-0.009-0.048-0.02-0.073-0.03
			c-0.006-0.002-0.012-0.004-0.017-0.007l-5.085-1.977c-21.339-8.28-38.334-14.57-48.751-18.528c-0.009-0.003-0.091-0.034-0.1-0.037
			c-2.683-1.02-5.071-1.876-7.151-2.642l-0.109-0.04c-2.628-0.965-4.696-1.72-6.219-2.272l-1.688-0.611l-0.001,0.002
			c-0.034-0.013-0.069-0.025-0.1-0.037l-0.584-0.212c-0.009-0.003-0.038-0.014-0.063-0.022c-0.006-0.003-0.012-0.004-0.018-0.006
			c-0.008-0.003-0.014-0.004-0.016-0.005c-0.005-0.002-0.01-0.004-0.014-0.005l-0.091-0.032c-3.271-1.197-6.878-0.894-9.881,0.787
			l-26.729-9.843c-0.022-0.008-0.045-0.016-0.068-0.024c-0.021-0.007-0.04-0.015-0.061-0.023l-0.41-0.148
			c-0.008-0.002-0.016-0.005-0.023-0.008c0,0-0.002-0.001-0.004-0.001c-0.01-0.004-0.018-0.008-0.027-0.01l-1.515-0.543
			c-5.02-1.786-10.44-0.139-13.505,4.097l-0.315,0.416c-0.023,0.029-0.052,0.067-0.074,0.096l-0.087,0.116l-1.403,1.955
			c-0.182,0.261-0.371,0.536-0.556,0.809l-1.426,2.165c-0.013,0.018-0.117,0.177-0.119,0.182c-0.219,0.352-0.453,0.71-0.645,1.021
			c-0.014,0.021-0.075,0.117-0.088,0.138c-0.256,0.412-0.521,0.844-0.791,1.291l-0.181,0.301c-0.204,0.338-0.411,0.688-0.645,1.086
			l-0.233,0.398c-0.224,0.385-0.452,0.783-0.729,1.269l-0.125,0.22c-0.293,0.519-0.589,1.053-0.866,1.562l-0.165,0.304
			c-0.248,0.458-0.499,0.927-0.77,1.439l-0.234,0.45c-0.236,0.448-0.472,0.907-0.737,1.429l-0.212,0.416
			c-0.631,1.255-1.261,2.556-1.875,3.877l-0.25,0.543c-0.239,0.518-0.478,1.045-0.732,1.616l-0.248,0.559
			c-0.276,0.63-0.553,1.27-0.833,1.931l-0.108,0.25c-0.316,0.752-0.629,1.52-0.932,2.276l-0.205,0.518
			c-0.245,0.619-0.489,1.246-0.746,1.92l-0.239,0.636c-0.241,0.644-0.48,1.297-0.716,1.957l-0.192,0.532
			c-0.304,0.854-0.601,1.719-0.88,2.557L140.606,56c-0.26,0.78-0.513,1.573-0.768,2.391l-0.218,0.712
			c-0.214,0.694-0.424,1.396-0.623,2.085l-0.211,0.73c-0.547,1.92-1.057,3.859-1.517,5.773l-0.161,0.688
			c-0.182,0.767-0.357,1.541-0.531,2.341l-0.178,0.821c-0.182,0.854-0.357,1.714-0.518,2.554l-0.108,0.546
			c-0.198,1.049-0.387,2.111-0.57,3.209l-0.084,0.528c-0.145,0.89-0.283,1.788-0.418,2.737l-0.052,0.345
			c-0.021,0.148-0.04,0.296-0.046,0.362c-0.361,2.617-0.654,5.291-0.864,7.867c-0.018,0.151-0.032,0.302-0.045,0.476l-0.037,0.546
			c-0.057,0.752-0.106,1.511-0.15,2.251l-0.064,1.106c-0.048,0.928-0.086,1.865-0.117,2.814l-0.02,0.569
			c-0.032,1.138-0.051,2.288-0.056,3.476l0.004,0.896c0.002,0.85,0.009,1.703,0.025,2.581l0.032,1.22
			c0.022,0.796,0.051,1.596,0.086,2.37c0.018,0.425,0.037,0.851,0.061,1.282c0.044,0.849,0.099,1.705,0.159,2.564l0.077,1.085
			c0.095,1.218,0.203,2.443,0.328,3.652l0.037,0.33c0.119,1.13,0.254,2.268,0.404,3.442l0.161,1.169
			c0.118,0.869,0.244,1.74,0.378,2.6c0.069,0.455,0.144,0.911,0.217,1.355c0.14,0.86,0.291,1.722,0.449,2.598l0.242,1.313
			c0.193,1.009,0.4,2.023,0.613,3.035l0.177,0.847c0.155,0.717,0.318,1.438,0.489,2.169c-28.181-3.323-59.172,1.275-83.616,12.499
			c-0.198,0.08-0.396,0.165-0.591,0.255c-0.271,0.126-0.54,0.258-0.805,0.389l-0.231,0.114c-0.671,0.319-1.338,0.642-2.004,0.975
			c-0.642,0.32-1.275,0.648-1.882,0.965l-0.273,0.14c-0.233,0.117-0.462,0.234-0.728,0.375c-0.231,0.124-0.461,0.25-0.681,0.373
			l-0.291,0.16c-0.535,0.293-1.065,0.592-1.59,0.889l-0.264,0.149c-0.279,0.156-0.558,0.314-0.847,0.482
			c-0.358,0.209-0.714,0.42-1.055,0.624c-0.432,0.258-0.858,0.521-1.301,0.793c-0.421,0.26-0.842,0.521-1.251,0.782l-0.152,0.097
			c-0.33,0.209-0.657,0.417-0.989,0.634c-0.284,0.186-0.563,0.373-0.844,0.561l-0.151,0.102c-0.471,0.315-0.935,0.637-1.409,0.965
			l-0.301,0.209c-0.289,0.198-0.576,0.397-0.891,0.621l-0.691,0.503c-0.478,0.348-0.947,0.703-1.408,1.055l-0.506,0.383
			c-0.283,0.212-0.565,0.425-0.843,0.642l-0.451,0.359c-0.571,0.452-1.13,0.918-1.679,1.378l-0.458,0.379
			c-0.263,0.214-0.524,0.431-0.717,0.597l-0.269,0.232c-1.078,0.934-2.061,1.826-3.009,2.725c-2.61,2.479-3.943,5.959-3.66,9.548
			c0.087,1.087,0.32,2.15,0.696,3.169c-0.072,0.739-0.074,1.481-0.008,2.22c-0.988,1.322-1.692,2.838-2.064,4.448
			C19.11,187.238,18.388,188.332,17.826,189.484z"/>
		<path style="fill:#9A9A9A;" d="M16.399,188.058c-0.78,1.603-1.194,3.381-1.201,5.16c-0.281,1.611-0.271,3.237,0.033,4.839
			c1.033,5.421,4.807,8.349,7.009,9.63l110.857,72.689c3.086,2.281,6.784,3.487,10.7,3.487c2.833,0,5.707-0.662,8.095-1.864
			c0.241-0.122,0.478-0.251,0.704-0.386l108.87-64.463c1.296-0.768,2.42-1.76,3.342-2.949l83.133-107.417
			c5.304-6.435,6.615-16.976-0.817-24.947c-0.12-0.129-0.242-0.259-0.391-0.408l-0.123-0.121c-0.525-0.521-1.058-0.987-1.627-1.423
			c-0.926-0.709-1.947-1.278-3.037-1.688l-0.407-0.154c-1.279-2.602-3.487-4.673-6.192-5.773c-5.376-2.183-10.63-4.302-15.732-6.35
			l-17.943-7.154c-7.099-2.813-14.412-5.685-21.736-8.539v0.001c-0.022-0.01-0.047-0.021-0.072-0.03
			c-0.007-0.003-0.012-0.005-0.018-0.007l-5.085-1.976c-21.339-8.28-38.334-14.57-48.751-18.529c-0.009-0.002-0.091-0.034-0.1-0.037
			c-2.684-1.019-5.071-1.876-7.151-2.641l-0.109-0.04c-2.628-0.966-4.697-1.721-6.219-2.273l-1.688-0.611l-0.002,0.002
			c-0.033-0.013-0.068-0.024-0.1-0.037l-0.585-0.212c-0.008-0.003-0.038-0.014-0.061-0.023c-0.006-0.002-0.013-0.004-0.018-0.006
			c-0.008-0.002-0.014-0.005-0.016-0.005c-0.005-0.002-0.01-0.004-0.015-0.006l-0.09-0.032c-3.273-1.197-6.878-0.894-9.881,0.788
			l-26.73-9.843c-0.023-0.009-0.045-0.017-0.068-0.023c-0.02-0.008-0.04-0.017-0.061-0.023l-0.411-0.149
			c-0.007-0.003-0.015-0.005-0.023-0.008c0,0-0.002-0.001-0.004-0.002c-0.01-0.003-0.019-0.007-0.028-0.011l-1.514-0.542
			c-5.02-1.787-10.44-0.138-13.505,4.098l-0.316,0.414c-0.023,0.029-0.052,0.066-0.074,0.097l-0.087,0.115l-1.403,1.955
			c-0.182,0.261-0.371,0.537-0.556,0.809l-1.426,2.165c-0.014,0.017-0.117,0.178-0.12,0.182c-0.219,0.352-0.452,0.71-0.643,1.021
			c-0.014,0.021-0.075,0.117-0.088,0.138c-0.256,0.411-0.52,0.843-0.791,1.289l-0.181,0.302c-0.204,0.339-0.411,0.687-0.646,1.086
			l-0.232,0.398c-0.225,0.385-0.452,0.783-0.729,1.269l-0.125,0.22c-0.293,0.519-0.589,1.053-0.866,1.562l-0.165,0.304
			c-0.249,0.458-0.499,0.927-0.769,1.439l-0.234,0.449c-0.236,0.449-0.473,0.908-0.737,1.43l-0.212,0.416
			c-0.631,1.254-1.261,2.556-1.876,3.877l-0.249,0.542c-0.239,0.518-0.479,1.045-0.732,1.617l-0.248,0.558
			c-0.277,0.631-0.553,1.271-0.834,1.931l-0.107,0.251c-0.316,0.752-0.63,1.52-0.932,2.275l-0.205,0.519
			c-0.245,0.618-0.489,1.246-0.746,1.919l-0.239,0.636c-0.241,0.643-0.48,1.296-0.717,1.957l-0.191,0.533
			c-0.304,0.853-0.601,1.719-0.88,2.557l-0.097,0.293c-0.259,0.78-0.512,1.573-0.768,2.391l-0.218,0.712
			c-0.214,0.694-0.424,1.397-0.623,2.084l-0.212,0.731c-0.546,1.92-1.056,3.858-1.516,5.774l-0.161,0.688
			c-0.182,0.767-0.357,1.54-0.531,2.341l-0.178,0.82c-0.182,0.854-0.356,1.715-0.518,2.555l-0.108,0.546
			c-0.198,1.049-0.387,2.112-0.571,3.208l-0.083,0.529c-0.145,0.89-0.283,1.789-0.419,2.737l-0.052,0.346
			c-0.02,0.148-0.04,0.296-0.045,0.363c-0.361,2.617-0.654,5.29-0.864,7.866c-0.018,0.151-0.032,0.302-0.045,0.476l-0.037,0.546
			c-0.057,0.753-0.107,1.512-0.15,2.251l-0.065,1.106c-0.047,0.929-0.085,1.864-0.116,2.813l-0.02,0.57
			c-0.032,1.138-0.052,2.287-0.056,3.475l0.004,0.895c0.002,0.851,0.009,1.705,0.025,2.582l0.031,1.22
			c0.022,0.795,0.052,1.596,0.087,2.37c0.018,0.426,0.037,0.851,0.061,1.283c0.044,0.85,0.099,1.704,0.159,2.563l0.077,1.086
			c0.095,1.218,0.203,2.443,0.328,3.651l0.037,0.33c0.119,1.13,0.254,2.267,0.404,3.442l0.161,1.169
			c0.118,0.869,0.243,1.74,0.377,2.6c0.069,0.454,0.144,0.91,0.218,1.354c0.14,0.859,0.291,1.723,0.449,2.599l0.242,1.312
			c0.193,1.009,0.4,2.024,0.613,3.035l0.177,0.847c0.155,0.718,0.318,1.438,0.488,2.169c-28.18-3.324-59.171,1.274-83.615,12.498
			c-0.198,0.079-0.396,0.165-0.591,0.255c-0.271,0.126-0.54,0.258-0.805,0.388l-0.232,0.115c-0.67,0.319-1.337,0.642-2.004,0.975
			c-0.641,0.32-1.274,0.648-1.881,0.965l-0.273,0.14c-0.232,0.117-0.462,0.234-0.728,0.375c-0.231,0.123-0.461,0.25-0.681,0.372
			l-0.292,0.161c-0.534,0.293-1.065,0.591-1.589,0.889l-0.264,0.149c-0.279,0.157-0.558,0.314-0.847,0.482
			c-0.358,0.209-0.715,0.42-1.055,0.624c-0.432,0.257-0.858,0.52-1.301,0.793c-0.421,0.26-0.842,0.521-1.251,0.781l-0.153,0.098
			c-0.329,0.208-0.656,0.417-0.988,0.634c-0.284,0.186-0.564,0.372-0.844,0.56l-0.152,0.102c-0.47,0.315-0.934,0.636-1.408,0.965
			l-0.302,0.208c-0.288,0.198-0.576,0.397-0.891,0.622l-0.69,0.503c-0.478,0.348-0.947,0.704-1.408,1.055l-0.506,0.382
			c-0.283,0.211-0.566,0.424-0.844,0.642l-0.45,0.358c-0.572,0.453-1.131,0.919-1.679,1.378l-0.458,0.379
			c-0.263,0.214-0.524,0.43-0.717,0.597l-0.269,0.231c-1.078,0.935-2.062,1.826-3.009,2.725c-2.61,2.479-3.943,5.958-3.66,9.548
			c0.087,1.087,0.32,2.15,0.696,3.169c-0.072,0.739-0.074,1.481-0.008,2.22c-0.989,1.322-1.692,2.838-2.066,4.447
			C17.684,185.813,16.962,186.905,16.399,188.058z"/>
		<path style="fill:#8B8B8B;" d="M14.974,186.632c-0.781,1.603-1.194,3.382-1.201,5.16c-0.282,1.61-0.271,3.237,0.033,4.839
			c1.033,5.421,4.806,8.35,7.009,9.63l110.857,72.688c3.086,2.282,6.783,3.488,10.699,3.488c2.834,0,5.708-0.662,8.096-1.864
			c0.241-0.122,0.478-0.252,0.704-0.387l108.869-64.463c1.297-0.768,2.421-1.76,3.342-2.95l83.134-107.417
			c5.304-6.435,6.614-16.976-0.817-24.947c-0.121-0.129-0.242-0.259-0.391-0.407l-0.123-0.121c-0.525-0.521-1.058-0.987-1.627-1.423
			c-0.926-0.71-1.948-1.278-3.037-1.688l-0.407-0.154c-1.279-2.601-3.487-4.673-6.192-5.773c-5.377-2.183-10.63-4.303-15.732-6.35
			l-17.943-7.155c-7.1-2.811-14.413-5.684-21.736-8.538v0.001c-0.023-0.01-0.047-0.02-0.072-0.029
			c-0.007-0.002-0.012-0.005-0.018-0.007l-5.085-1.977c-21.339-8.28-38.334-14.57-48.752-18.528
			c-0.008-0.003-0.091-0.035-0.099-0.038c-2.684-1.02-5.071-1.876-7.152-2.641l-0.108-0.04c-2.628-0.966-4.697-1.721-6.22-2.273
			l-1.688-0.612l-0.001,0.003c-0.033-0.013-0.068-0.025-0.1-0.037l-0.585-0.212c-0.008-0.004-0.038-0.015-0.061-0.023
			c-0.006-0.002-0.013-0.004-0.018-0.007c-0.008-0.002-0.014-0.004-0.017-0.005c-0.004-0.001-0.009-0.003-0.014-0.005l-0.09-0.033
			c-3.272-1.197-6.878-0.893-9.882,0.788l-26.729-9.843c-0.023-0.008-0.045-0.017-0.068-0.024c-0.02-0.008-0.04-0.016-0.061-0.023
			l-0.411-0.148c-0.007-0.003-0.015-0.006-0.022-0.008c-0.002,0-0.002-0.001-0.004-0.002c-0.01-0.002-0.019-0.006-0.028-0.01
			l-1.514-0.543c-5.021-1.786-10.441-0.138-13.505,4.097l-0.315,0.416c-0.023,0.029-0.053,0.066-0.074,0.096l-0.087,0.116
			l-1.403,1.955c-0.182,0.26-0.371,0.536-0.556,0.808l-1.426,2.165c-0.014,0.018-0.117,0.177-0.12,0.182
			c-0.219,0.353-0.452,0.71-0.644,1.021c-0.014,0.021-0.075,0.117-0.088,0.139c-0.257,0.411-0.521,0.842-0.791,1.289l-0.181,0.302
			c-0.204,0.339-0.411,0.688-0.646,1.086l-0.232,0.399c-0.225,0.385-0.452,0.782-0.728,1.268l-0.126,0.22
			c-0.292,0.519-0.588,1.052-0.865,1.562l-0.165,0.303c-0.249,0.459-0.499,0.927-0.77,1.44l-0.233,0.449
			c-0.236,0.449-0.473,0.908-0.737,1.429l-0.212,0.417c-0.631,1.254-1.261,2.555-1.876,3.876l-0.249,0.543
			c-0.24,0.518-0.479,1.045-0.732,1.616l-0.248,0.559c-0.277,0.631-0.554,1.271-0.834,1.931l-0.107,0.251
			c-0.316,0.751-0.63,1.52-0.932,2.275l-0.205,0.519c-0.245,0.619-0.489,1.246-0.746,1.919l-0.239,0.636
			c-0.241,0.643-0.481,1.297-0.717,1.957l-0.192,0.533c-0.303,0.852-0.6,1.719-0.879,2.557l-0.097,0.293
			c-0.259,0.78-0.512,1.572-0.769,2.39l-0.218,0.713c-0.213,0.694-0.423,1.397-0.622,2.084l-0.212,0.732
			c-0.546,1.919-1.056,3.858-1.516,5.773l-0.161,0.688c-0.182,0.766-0.357,1.54-0.532,2.341l-0.177,0.82
			c-0.182,0.854-0.356,1.715-0.518,2.555l-0.108,0.546c-0.198,1.05-0.388,2.112-0.571,3.208l-0.083,0.528
			c-0.145,0.89-0.283,1.789-0.419,2.738l-0.052,0.346c-0.021,0.148-0.04,0.296-0.045,0.362c-0.361,2.617-0.654,5.29-0.864,7.866
			c-0.018,0.15-0.032,0.303-0.045,0.477l-0.037,0.546c-0.057,0.753-0.107,1.512-0.15,2.251l-0.065,1.105
			c-0.047,0.929-0.085,1.865-0.116,2.815l-0.021,0.57c-0.033,1.137-0.052,2.287-0.056,3.475l0.004,0.896
			c0.001,0.85,0.009,1.704,0.025,2.581l0.031,1.221c0.022,0.795,0.052,1.596,0.087,2.37c0.018,0.425,0.037,0.851,0.06,1.283
			c0.045,0.849,0.1,1.705,0.16,2.563l0.077,1.086c0.094,1.217,0.203,2.443,0.328,3.651l0.037,0.33
			c0.119,1.131,0.253,2.268,0.404,3.442l0.16,1.17c0.119,0.868,0.244,1.74,0.378,2.6c0.069,0.454,0.143,0.91,0.218,1.354
			c0.14,0.859,0.291,1.723,0.449,2.598l0.242,1.313c0.193,1.009,0.4,2.024,0.613,3.035l0.177,0.848
			c0.155,0.718,0.317,1.436,0.488,2.169c-28.18-3.324-59.172,1.274-83.615,12.498c-0.199,0.079-0.396,0.164-0.591,0.255
			c-0.272,0.127-0.54,0.257-0.805,0.388l-0.232,0.115c-0.67,0.319-1.338,0.643-2.004,0.975c-0.641,0.32-1.274,0.648-1.881,0.965
			l-0.273,0.14c-0.232,0.117-0.463,0.234-0.728,0.375c-0.232,0.124-0.461,0.251-0.681,0.373l-0.292,0.16
			c-0.534,0.292-1.065,0.591-1.589,0.889l-0.264,0.15c-0.279,0.156-0.558,0.313-0.847,0.482c-0.358,0.208-0.715,0.42-1.056,0.624
			c-0.431,0.258-0.857,0.52-1.3,0.793c-0.422,0.26-0.842,0.521-1.251,0.782l-0.153,0.098c-0.329,0.208-0.656,0.416-0.989,0.633
			c-0.283,0.186-0.563,0.373-0.843,0.56l-0.152,0.103c-0.47,0.315-0.935,0.637-1.408,0.966l-0.302,0.208
			c-0.288,0.199-0.576,0.398-0.891,0.623l-0.691,0.502c-0.479,0.348-0.947,0.704-1.409,1.056l-0.505,0.382
			c-0.283,0.211-0.566,0.424-0.844,0.642l-0.45,0.358c-0.572,0.453-1.131,0.919-1.679,1.378l-0.458,0.38
			c-0.263,0.214-0.524,0.43-0.718,0.597l-0.268,0.23c-1.078,0.936-2.062,1.826-3.009,2.726c-2.61,2.48-3.943,5.959-3.66,9.549
			c0.086,1.087,0.32,2.149,0.696,3.168c-0.073,0.739-0.074,1.482-0.008,2.221c-0.989,1.322-1.693,2.838-2.066,4.447
			C16.259,184.386,15.536,185.48,14.974,186.632z"/>
		<path style="fill:#7D7D7D;" d="M13.548,185.206c-0.782,1.603-1.194,3.381-1.202,5.16c-0.282,1.61-0.271,3.237,0.033,4.839
			c1.032,5.421,4.806,8.349,7.009,9.63l110.857,72.688c3.086,2.282,6.784,3.488,10.699,3.488c2.834,0,5.708-0.662,8.096-1.864
			c0.241-0.122,0.479-0.252,0.704-0.386l108.87-64.464c1.296-0.768,2.42-1.76,3.341-2.949l83.134-107.418
			c5.304-6.434,6.615-16.975-0.816-24.945c-0.121-0.13-0.243-0.26-0.392-0.409l-0.123-0.121c-0.525-0.521-1.057-0.986-1.627-1.422
			c-0.926-0.71-1.948-1.278-3.037-1.689l-0.406-0.153c-1.28-2.603-3.488-4.673-6.193-5.772c-5.376-2.183-10.63-4.303-15.731-6.35
			l-17.943-7.155c-7.099-2.812-14.413-5.685-21.735-8.539v0.001c-0.025-0.009-0.048-0.02-0.072-0.028
			c-0.008-0.003-0.013-0.006-0.019-0.008l-5.084-1.976c-21.34-8.28-38.334-14.57-48.753-18.528
			c-0.008-0.003-0.091-0.034-0.099-0.037c-2.684-1.02-5.071-1.876-7.152-2.642l-0.107-0.04c-2.629-0.966-4.698-1.72-6.22-2.273
			l-1.688-0.61l-0.001,0.002c-0.032-0.012-0.067-0.025-0.1-0.037l-0.585-0.212c-0.008-0.003-0.038-0.015-0.063-0.022
			c-0.005-0.003-0.011-0.004-0.018-0.007c-0.007-0.002-0.012-0.005-0.016-0.005c-0.004-0.001-0.009-0.003-0.013-0.004l-0.091-0.033
			c-3.272-1.197-6.878-0.894-9.881,0.788l-26.729-9.842c-0.023-0.008-0.045-0.017-0.068-0.024c-0.02-0.009-0.039-0.016-0.059-0.023
			l-0.412-0.149c-0.008-0.002-0.015-0.005-0.023-0.008c-0.002,0-0.003-0.002-0.003-0.002c-0.01-0.003-0.02-0.007-0.028-0.01
			l-1.515-0.544c-5.021-1.786-10.44-0.138-13.506,4.098l-0.314,0.415c-0.023,0.029-0.053,0.066-0.074,0.096l-0.087,0.116
			l-1.402,1.955c-0.183,0.261-0.372,0.536-0.556,0.809l-1.427,2.165c-0.014,0.018-0.117,0.177-0.119,0.182
			c-0.219,0.352-0.454,0.71-0.645,1.021c-0.015,0.021-0.075,0.117-0.089,0.138c-0.256,0.412-0.52,0.843-0.79,1.29l-0.18,0.302
			c-0.204,0.339-0.412,0.688-0.646,1.086l-0.231,0.399c-0.226,0.385-0.453,0.782-0.729,1.268l-0.126,0.221
			c-0.292,0.517-0.588,1.052-0.865,1.561l-0.164,0.303c-0.249,0.458-0.5,0.927-0.771,1.44l-0.232,0.449
			c-0.237,0.449-0.474,0.907-0.738,1.429l-0.212,0.417c-0.631,1.254-1.26,2.555-1.876,3.876l-0.25,0.542
			c-0.238,0.519-0.478,1.045-0.731,1.617l-0.249,0.558c-0.276,0.63-0.553,1.271-0.833,1.931l-0.107,0.251
			c-0.316,0.751-0.629,1.519-0.932,2.274l-0.206,0.518c-0.244,0.619-0.487,1.246-0.745,1.92l-0.239,0.636
			c-0.242,0.643-0.482,1.297-0.717,1.957l-0.191,0.533c-0.304,0.853-0.601,1.719-0.879,2.556l-0.097,0.294
			c-0.26,0.779-0.513,1.572-0.769,2.39l-0.219,0.713c-0.213,0.694-0.423,1.397-0.622,2.084l-0.211,0.732
			c-0.547,1.919-1.057,3.859-1.516,5.773l-0.161,0.688c-0.184,0.766-0.358,1.541-0.533,2.341l-0.176,0.82
			c-0.182,0.854-0.356,1.715-0.518,2.555l-0.108,0.547c-0.197,1.05-0.387,2.112-0.57,3.208l-0.083,0.528
			c-0.145,0.891-0.284,1.789-0.42,2.737l-0.052,0.347c-0.021,0.148-0.039,0.296-0.045,0.361c-0.361,2.618-0.654,5.291-0.864,7.866
			c-0.017,0.151-0.031,0.303-0.044,0.476l-0.039,0.546c-0.056,0.753-0.106,1.512-0.149,2.252l-0.064,1.105
			c-0.048,0.929-0.086,1.865-0.118,2.814l-0.02,0.57c-0.032,1.138-0.052,2.288-0.055,3.475l0.003,0.895
			c0.001,0.851,0.009,1.704,0.026,2.582l0.031,1.22c0.021,0.796,0.051,1.597,0.086,2.371c0.019,0.425,0.037,0.851,0.061,1.283
			c0.045,0.85,0.101,1.704,0.16,2.563l0.078,1.086c0.094,1.218,0.202,2.443,0.328,3.651l0.037,0.33
			c0.118,1.13,0.252,2.268,0.403,3.442l0.16,1.169c0.119,0.869,0.244,1.74,0.379,2.6c0.068,0.455,0.143,0.911,0.217,1.354
			c0.14,0.86,0.291,1.723,0.449,2.599l0.243,1.313c0.192,1.009,0.398,2.023,0.612,3.035l0.177,0.847
			c0.155,0.717,0.318,1.437,0.489,2.168c-28.181-3.323-59.173,1.275-83.616,12.498c-0.199,0.079-0.396,0.165-0.592,0.256
			c-0.27,0.126-0.539,0.257-0.804,0.388l-0.232,0.115c-0.671,0.319-1.338,0.642-2.004,0.975c-0.641,0.32-1.274,0.648-1.881,0.965
			l-0.273,0.14c-0.232,0.116-0.463,0.234-0.728,0.375c-0.231,0.123-0.461,0.25-0.682,0.372l-0.29,0.161
			c-0.534,0.292-1.065,0.591-1.59,0.889l-0.264,0.149c-0.278,0.156-0.557,0.313-0.847,0.482c-0.357,0.209-0.714,0.42-1.056,0.624
			c-0.43,0.258-0.856,0.52-1.3,0.793c-0.422,0.26-0.841,0.52-1.251,0.781l-0.152,0.098c-0.33,0.208-0.657,0.417-0.989,0.633
			c-0.284,0.186-0.563,0.373-0.843,0.561l-0.153,0.103c-0.47,0.315-0.934,0.637-1.408,0.965l-0.301,0.208
			c-0.289,0.199-0.577,0.398-0.891,0.622l-0.691,0.503c-0.478,0.348-0.947,0.704-1.409,1.055l-0.505,0.383
			c-0.283,0.211-0.566,0.424-0.844,0.642l-0.451,0.359c-0.571,0.453-1.13,0.919-1.678,1.378l-0.457,0.379
			c-0.264,0.214-0.525,0.43-0.719,0.597l-0.267,0.232c-1.079,0.934-2.062,1.826-3.01,2.726c-2.61,2.479-3.944,5.958-3.66,9.548
			c0.086,1.087,0.32,2.15,0.696,3.168c-0.072,0.739-0.074,1.482-0.007,2.22c-0.99,1.322-1.694,2.838-2.066,4.447
			C14.832,182.96,14.11,184.053,13.548,185.206z"/>
		<path style="fill:#6E6E6E;" d="M12.121,183.78c-0.781,1.602-1.194,3.381-1.201,5.16c-0.282,1.611-0.271,3.237,0.033,4.839
			c1.032,5.421,4.806,8.349,7.008,9.63l110.858,72.688c3.085,2.282,6.783,3.488,10.699,3.488c2.833,0,5.707-0.662,8.096-1.864
			c0.241-0.122,0.478-0.252,0.704-0.386l108.869-64.463c1.296-0.768,2.421-1.76,3.342-2.949l83.134-107.418
			c5.304-6.435,6.614-16.976-0.817-24.947c-0.121-0.129-0.242-0.259-0.391-0.408l-0.124-0.121c-0.524-0.521-1.057-0.987-1.626-1.423
			c-0.926-0.71-1.948-1.278-3.037-1.688l-0.407-0.154c-1.279-2.602-3.487-4.673-6.193-5.772c-5.376-2.184-10.629-4.303-15.732-6.351
			l-17.942-7.154c-7.1-2.812-14.413-5.686-21.736-8.539v0c-0.023-0.009-0.047-0.02-0.072-0.029
			c-0.007-0.003-0.012-0.005-0.017-0.007l-5.085-1.977c-21.339-8.28-38.334-14.57-48.752-18.529
			c-0.008-0.003-0.091-0.034-0.099-0.037c-2.684-1.02-5.071-1.876-7.152-2.641l-0.108-0.04c-2.628-0.966-4.697-1.721-6.22-2.273
			l-1.688-0.612l-0.001,0.003c-0.033-0.013-0.068-0.025-0.101-0.037l-0.584-0.212c-0.008-0.003-0.038-0.014-0.063-0.022
			c-0.005-0.002-0.012-0.004-0.018-0.006c-0.007-0.003-0.013-0.005-0.016-0.006c-0.005-0.002-0.009-0.003-0.014-0.005l-0.09-0.032
			c-3.273-1.197-6.879-0.893-9.882,0.788l-26.729-9.844c-0.023-0.008-0.046-0.016-0.069-0.023c-0.02-0.008-0.039-0.016-0.06-0.023
			l-0.411-0.148c-0.008-0.003-0.015-0.006-0.023-0.009c-0.001,0-0.002,0-0.004-0.001c-0.009-0.003-0.019-0.007-0.027-0.011
			l-1.514-0.543c-5.021-1.786-10.441-0.138-13.506,4.098l-0.316,0.415c-0.022,0.029-0.052,0.066-0.074,0.097l-0.086,0.116
			l-1.403,1.955c-0.182,0.261-0.371,0.537-0.556,0.809l-1.427,2.164c-0.013,0.019-0.116,0.177-0.119,0.182
			c-0.218,0.353-0.453,0.711-0.644,1.022c-0.015,0.021-0.075,0.117-0.089,0.137c-0.256,0.411-0.521,0.843-0.79,1.291l-0.181,0.302
			c-0.204,0.338-0.411,0.688-0.646,1.085l-0.232,0.399c-0.225,0.385-0.453,0.783-0.729,1.268l-0.125,0.22
			c-0.292,0.519-0.588,1.052-0.865,1.561l-0.165,0.304c-0.249,0.458-0.499,0.927-0.771,1.44l-0.233,0.449
			c-0.237,0.448-0.473,0.907-0.737,1.429l-0.212,0.417c-0.631,1.254-1.261,2.556-1.876,3.876l-0.25,0.543
			c-0.239,0.519-0.478,1.045-0.732,1.617l-0.249,0.559c-0.276,0.63-0.553,1.27-0.833,1.93l-0.107,0.251
			c-0.316,0.752-0.63,1.52-0.933,2.275l-0.205,0.518c-0.244,0.619-0.488,1.245-0.746,1.92l-0.239,0.635
			c-0.241,0.643-0.48,1.297-0.716,1.957l-0.192,0.533c-0.303,0.853-0.6,1.719-0.879,2.556l-0.097,0.293
			c-0.259,0.78-0.512,1.572-0.769,2.39l-0.218,0.712c-0.213,0.694-0.423,1.397-0.622,2.085l-0.212,0.731
			c-0.547,1.919-1.056,3.859-1.516,5.773l-0.162,0.687c-0.182,0.766-0.357,1.541-0.531,2.341l-0.177,0.821
			c-0.183,0.854-0.356,1.715-0.519,2.555l-0.108,0.546c-0.197,1.05-0.387,2.112-0.57,3.209l-0.083,0.528
			c-0.145,0.891-0.283,1.788-0.419,2.737l-0.052,0.346c-0.021,0.148-0.04,0.296-0.046,0.361c-0.36,2.618-0.653,5.292-0.863,7.867
			c-0.018,0.151-0.032,0.302-0.046,0.476l-0.037,0.546c-0.057,0.752-0.106,1.511-0.15,2.251l-0.064,1.106
			c-0.047,0.929-0.085,1.865-0.117,2.813l-0.021,0.57c-0.032,1.137-0.051,2.287-0.056,3.475l0.004,0.896
			c0.002,0.85,0.01,1.703,0.026,2.582l0.031,1.221c0.022,0.795,0.051,1.596,0.087,2.37c0.018,0.425,0.037,0.85,0.061,1.282
			c0.045,0.85,0.1,1.706,0.16,2.564l0.076,1.085c0.095,1.219,0.203,2.443,0.329,3.651l0.037,0.331
			c0.118,1.13,0.253,2.268,0.404,3.442l0.16,1.169c0.119,0.87,0.244,1.741,0.378,2.6c0.069,0.455,0.144,0.911,0.217,1.355
			c0.141,0.859,0.291,1.722,0.45,2.598l0.242,1.313c0.192,1.008,0.399,2.023,0.613,3.034l0.176,0.848
			c0.156,0.717,0.318,1.437,0.489,2.168c-28.18-3.324-59.172,1.276-83.615,12.499c-0.199,0.079-0.395,0.164-0.592,0.255
			c-0.271,0.126-0.54,0.258-0.804,0.389l-0.232,0.114c-0.671,0.319-1.338,0.642-2.004,0.975c-0.641,0.32-1.275,0.648-1.882,0.965
			l-0.273,0.14c-0.231,0.117-0.462,0.233-0.727,0.376c-0.231,0.123-0.462,0.249-0.682,0.372l-0.291,0.161
			c-0.534,0.292-1.066,0.591-1.59,0.889l-0.263,0.149c-0.279,0.157-0.558,0.314-0.848,0.482c-0.358,0.209-0.714,0.421-1.055,0.624
			c-0.431,0.258-0.858,0.521-1.301,0.793c-0.421,0.261-0.841,0.521-1.25,0.782l-0.153,0.098c-0.329,0.208-0.657,0.417-0.989,0.634
			c-0.283,0.186-0.563,0.373-0.843,0.561l-0.152,0.102c-0.471,0.316-0.935,0.638-1.408,0.965l-0.302,0.208
			c-0.288,0.199-0.576,0.398-0.891,0.622l-0.691,0.502c-0.477,0.348-0.947,0.704-1.408,1.056l-0.505,0.382
			c-0.283,0.212-0.566,0.425-0.844,0.642l-0.451,0.359c-0.571,0.452-1.13,0.919-1.678,1.379l-0.459,0.379
			c-0.262,0.214-0.524,0.43-0.717,0.597l-0.268,0.232c-1.078,0.934-2.062,1.825-3.009,2.725c-2.611,2.479-3.944,5.958-3.66,9.548
			c0.086,1.087,0.32,2.15,0.695,3.168c-0.072,0.74-0.074,1.482-0.007,2.221c-0.989,1.322-1.693,2.838-2.065,4.447
			C13.406,181.534,12.684,182.627,12.121,183.78z"/>
		<path style="fill:#606060;" d="M10.695,182.353c-0.781,1.603-1.195,3.382-1.201,5.161c-0.282,1.61-0.271,3.237,0.033,4.84
			c1.032,5.419,4.806,8.349,7.008,9.629l110.858,72.688c3.085,2.282,6.783,3.488,10.699,3.488c2.833,0,5.707-0.662,8.096-1.864
			c0.241-0.122,0.478-0.252,0.704-0.387l108.869-64.463c1.296-0.768,2.421-1.76,3.342-2.95l83.134-107.417
			c5.304-6.435,6.72-17.075-0.817-24.947c-0.119-0.131-0.242-0.259-0.391-0.408l-0.124-0.121c-0.524-0.521-1.058-0.987-1.626-1.423
			c-0.926-0.709-1.948-1.277-3.037-1.688l-0.407-0.154c-1.279-2.602-3.487-4.673-6.193-5.771c-5.376-2.184-10.63-4.304-15.732-6.351
			l-17.943-7.154c-7.099-2.813-14.412-5.686-21.735-8.54v0c-0.023-0.009-0.048-0.019-0.072-0.029
			c-0.007-0.002-0.013-0.004-0.018-0.007l-5.085-1.976c-21.339-8.28-38.304-14.652-48.752-18.529
			c-0.009-0.003-0.091-0.034-0.099-0.037c-2.691-0.999-5.071-1.876-7.152-2.642l-0.108-0.039c-2.629-0.966-4.697-1.72-6.22-2.273
			l-1.688-0.611l-0.001,0.003c-0.033-0.013-0.068-0.025-0.101-0.037l-0.584-0.213c-0.009-0.002-0.038-0.014-0.063-0.022
			c-0.006-0.003-0.012-0.004-0.018-0.007c-0.008-0.002-0.013-0.004-0.016-0.006c-0.005-0.001-0.01-0.003-0.014-0.004l-0.09-0.032
			c-3.273-1.197-6.879-0.893-9.882,0.788l-26.729-9.844c-0.023-0.008-0.046-0.016-0.069-0.024c-0.02-0.008-0.039-0.016-0.06-0.022
			l-0.411-0.148c-0.008-0.003-0.015-0.006-0.023-0.009c-0.001,0-0.002-0.001-0.004-0.001c-0.009-0.004-0.019-0.007-0.027-0.011
			l-1.515-0.543c-5.02-1.786-10.44-0.138-13.505,4.097l-0.315,0.416c-0.022,0.028-0.052,0.066-0.074,0.096l-0.086,0.116
			l-1.403,1.955c-0.183,0.261-0.371,0.537-0.557,0.809l-1.426,2.165c-0.013,0.018-0.116,0.177-0.119,0.182
			c-0.224,0.35-0.453,0.71-0.645,1.022c-0.014,0.02-0.074,0.116-0.088,0.137c-0.256,0.411-0.521,0.843-0.79,1.291l-0.181,0.301
			c-0.205,0.338-0.411,0.688-0.646,1.086l-0.231,0.399c-0.225,0.385-0.453,0.782-0.73,1.268l-0.125,0.22
			c-0.292,0.519-0.588,1.053-0.865,1.561l-0.166,0.304c-0.248,0.458-0.499,0.927-0.77,1.44l-0.234,0.449
			c-0.236,0.448-0.472,0.906-0.737,1.429l-0.211,0.417c-0.631,1.254-1.261,2.555-1.876,3.876l-0.25,0.542
			c-0.239,0.518-0.478,1.045-0.732,1.617L138.423,36c-0.276,0.63-0.553,1.271-0.833,1.931l-0.107,0.251
			c-0.316,0.752-0.63,1.52-0.933,2.275l-0.205,0.518c-0.245,0.619-0.488,1.246-0.746,1.921l-0.239,0.635
			c-0.241,0.644-0.48,1.297-0.716,1.957l-0.192,0.532c-0.304,0.854-0.6,1.719-0.88,2.557l-0.096,0.293
			c-0.259,0.78-0.513,1.572-0.769,2.39l-0.218,0.713c-0.214,0.694-0.423,1.396-0.623,2.085l-0.211,0.731
			c-0.547,1.919-1.056,3.858-1.516,5.773l-0.162,0.688c-0.182,0.766-0.357,1.541-0.531,2.34l-0.178,0.821
			c-0.182,0.853-0.355,1.715-0.518,2.555l-0.108,0.546c-0.197,1.049-0.387,2.112-0.57,3.208l-0.083,0.528
			c-0.146,0.891-0.283,1.789-0.419,2.738l-0.052,0.345c-0.021,0.149-0.04,0.296-0.046,0.362c-0.36,2.618-0.653,5.292-0.863,7.867
			c-0.018,0.15-0.032,0.302-0.046,0.476l-0.037,0.547c-0.057,0.752-0.106,1.511-0.15,2.251l-0.064,1.105
			c-0.048,0.929-0.086,1.865-0.117,2.814l-0.021,0.57c-0.032,1.137-0.051,2.288-0.056,3.475l0.004,0.895
			c0.002,0.85,0.01,1.704,0.026,2.582l0.031,1.22c0.022,0.796,0.051,1.596,0.086,2.37c0.019,0.425,0.037,0.851,0.062,1.282
			c0.045,0.85,0.1,1.705,0.159,2.564l0.077,1.085c0.095,1.218,0.203,2.444,0.328,3.652l0.037,0.331
			c0.119,1.13,0.254,2.268,0.405,3.442l0.16,1.169c0.119,0.868,0.244,1.74,0.378,2.599c0.069,0.455,0.144,0.911,0.217,1.355
			c0.141,0.86,0.291,1.723,0.45,2.599l0.242,1.313c0.192,1.009,0.399,2.024,0.613,3.035l0.176,0.848
			c0.156,0.717,0.318,1.437,0.489,2.168c-28.18-3.324-59.172,1.276-83.616,12.499c-0.198,0.079-0.394,0.164-0.591,0.255
			c-0.271,0.126-0.54,0.258-0.805,0.388l-0.231,0.115c-0.671,0.319-1.338,0.642-2.004,0.975c-0.642,0.32-1.274,0.648-1.882,0.965
			l-0.273,0.14c-0.231,0.117-0.462,0.234-0.728,0.375c-0.23,0.124-0.461,0.25-0.681,0.373l-0.291,0.161
			c-0.535,0.293-1.065,0.591-1.59,0.889l-0.263,0.149c-0.279,0.157-0.558,0.314-0.848,0.482c-0.358,0.209-0.714,0.42-1.055,0.624
			c-0.432,0.257-0.858,0.521-1.301,0.793c-0.421,0.259-0.841,0.521-1.25,0.781l-0.153,0.097c-0.329,0.209-0.657,0.417-0.989,0.635
			c-0.284,0.186-0.563,0.372-0.843,0.56l-0.152,0.102c-0.471,0.316-0.935,0.637-1.408,0.965l-0.302,0.208
			c-0.288,0.199-0.576,0.398-0.891,0.622l-0.691,0.503c-0.478,0.348-0.947,0.704-1.408,1.056l-0.506,0.382
			c-0.282,0.212-0.566,0.425-0.843,0.642l-0.451,0.358c-0.571,0.454-1.13,0.919-1.678,1.378l-0.459,0.379
			c-0.263,0.214-0.523,0.43-0.717,0.596l-0.269,0.231c-1.077,0.935-2.062,1.826-3.009,2.726c-2.61,2.479-3.943,5.959-3.659,9.548
			c0.086,1.088,0.319,2.151,0.695,3.169c-0.072,0.739-0.074,1.481-0.007,2.22c-0.989,1.322-1.693,2.838-2.066,4.447
			C11.98,180.107,11.258,181.201,10.695,182.353z"/>
	</g>
	<path style="fill:#FFFFFF;" d="M10.695,182.353c-0.781,1.603-1.195,3.382-1.201,5.161c-0.282,1.61-0.271,3.237,0.033,4.84
		c1.032,5.419,4.806,8.349,7.008,9.629l110.858,72.688c3.085,2.282,6.783,3.488,10.699,3.488c2.833,0,5.707-0.662,8.096-1.864
		c0.241-0.122,0.478-0.252,0.704-0.387l108.869-64.463c1.296-0.768,2.421-1.76,3.342-2.95l83.134-107.417
		c5.304-6.435,6.72-17.075-0.817-24.947c-0.119-0.131-0.242-0.259-0.391-0.408l-0.124-0.121c-0.524-0.521-1.058-0.987-1.626-1.423
		c-0.926-0.709-1.948-1.277-3.037-1.688l-0.407-0.154c-1.279-2.602-3.487-4.673-6.193-5.771c-5.376-2.184-10.63-4.304-15.732-6.351
		l-17.943-7.154c-7.099-2.813-14.412-5.686-21.735-8.54v0c-0.023-0.009-0.048-0.019-0.072-0.029
		c-0.007-0.002-0.013-0.004-0.018-0.007l-5.085-1.976c-21.339-8.28-38.304-14.652-48.752-18.529
		c-0.009-0.003-0.091-0.034-0.099-0.037c-2.691-0.999-5.071-1.876-7.152-2.642l-0.108-0.039c-2.629-0.966-4.697-1.72-6.22-2.273
		l-1.688-0.611l-0.001,0.003c-0.033-0.013-0.068-0.025-0.101-0.037l-0.584-0.213c-0.009-0.002-0.038-0.014-0.063-0.022
		c-0.006-0.003-0.012-0.004-0.018-0.007c-0.008-0.002-0.013-0.004-0.016-0.006c-0.005-0.001-0.01-0.003-0.014-0.004l-0.09-0.032
		c-3.273-1.197-6.879-0.893-9.882,0.788l-26.729-9.844c-0.023-0.008-0.046-0.016-0.069-0.024c-0.02-0.008-0.039-0.016-0.06-0.022
		l-0.411-0.148c-0.008-0.003-0.015-0.006-0.023-0.009c-0.001,0-0.002-0.001-0.004-0.001c-0.009-0.004-0.019-0.007-0.027-0.011
		l-1.515-0.543c-5.02-1.786-10.44-0.138-13.505,4.097l-0.315,0.416c-0.022,0.028-0.052,0.066-0.074,0.096l-0.086,0.116l-1.403,1.955
		c-0.183,0.261-0.371,0.537-0.557,0.809l-1.426,2.165c-0.013,0.018-0.116,0.177-0.119,0.182c-0.224,0.35-0.453,0.71-0.645,1.022
		c-0.014,0.02-0.074,0.116-0.088,0.137c-0.256,0.411-0.521,0.843-0.79,1.291l-0.181,0.301c-0.205,0.338-0.411,0.688-0.646,1.086
		l-0.231,0.399c-0.225,0.385-0.453,0.782-0.73,1.268l-0.125,0.22c-0.292,0.519-0.588,1.053-0.865,1.561l-0.166,0.304
		c-0.248,0.458-0.499,0.927-0.77,1.44l-0.234,0.449c-0.236,0.448-0.472,0.906-0.737,1.429l-0.211,0.417
		c-0.631,1.254-1.261,2.555-1.876,3.876l-0.25,0.542c-0.239,0.518-0.478,1.045-0.732,1.617L138.423,36
		c-0.276,0.63-0.553,1.271-0.833,1.931l-0.107,0.251c-0.316,0.752-0.63,1.52-0.933,2.275l-0.205,0.518
		c-0.245,0.619-0.488,1.246-0.746,1.921l-0.239,0.635c-0.241,0.644-0.48,1.297-0.716,1.957l-0.192,0.532
		c-0.304,0.854-0.6,1.719-0.88,2.557l-0.096,0.293c-0.259,0.78-0.513,1.572-0.769,2.39l-0.218,0.713
		c-0.214,0.694-0.423,1.396-0.623,2.085l-0.211,0.731c-0.547,1.919-1.056,3.858-1.516,5.773l-0.162,0.688
		c-0.182,0.766-0.357,1.541-0.531,2.34l-0.178,0.821c-0.182,0.853-0.355,1.715-0.518,2.555l-0.108,0.546
		c-0.197,1.049-0.387,2.112-0.57,3.208l-0.083,0.528c-0.146,0.891-0.283,1.789-0.419,2.738l-0.052,0.345
		c-0.021,0.149-0.04,0.296-0.046,0.362c-0.36,2.618-0.653,5.292-0.863,7.867c-0.018,0.15-0.032,0.302-0.046,0.476l-0.037,0.547
		c-0.057,0.752-0.106,1.511-0.15,2.251l-0.064,1.105c-0.048,0.929-0.086,1.865-0.117,2.814l-0.021,0.57
		c-0.032,1.137-0.051,2.288-0.056,3.475l0.004,0.895c0.002,0.85,0.01,1.704,0.026,2.582l0.031,1.22
		c0.022,0.796,0.051,1.596,0.086,2.37c0.019,0.425,0.037,0.851,0.062,1.282c0.045,0.85,0.1,1.705,0.159,2.564l0.077,1.085
		c0.095,1.218,0.203,2.444,0.328,3.652l0.037,0.331c0.119,1.13,0.254,2.268,0.405,3.442l0.16,1.169
		c0.119,0.868,0.244,1.74,0.378,2.599c0.069,0.455,0.144,0.911,0.217,1.355c0.141,0.86,0.291,1.723,0.45,2.599l0.242,1.313
		c0.192,1.009,0.399,2.024,0.613,3.035l0.176,0.848c0.156,0.717,0.318,1.437,0.489,2.168c-28.18-3.324-59.172,1.276-83.616,12.499
		c-0.198,0.079-0.394,0.164-0.591,0.255c-0.271,0.126-0.54,0.258-0.805,0.388l-0.231,0.115c-0.671,0.319-1.338,0.642-2.004,0.975
		c-0.642,0.32-1.274,0.648-1.882,0.965l-0.273,0.14c-0.231,0.117-0.462,0.234-0.728,0.375c-0.23,0.124-0.461,0.25-0.681,0.373
		l-0.291,0.161c-0.535,0.293-1.065,0.591-1.59,0.889l-0.263,0.149c-0.279,0.157-0.558,0.314-0.848,0.482
		c-0.358,0.209-0.714,0.42-1.055,0.624c-0.432,0.257-0.858,0.521-1.301,0.793c-0.421,0.259-0.841,0.521-1.25,0.781l-0.153,0.097
		c-0.329,0.209-0.657,0.417-0.989,0.635c-0.284,0.186-0.563,0.372-0.843,0.56l-0.152,0.102c-0.471,0.316-0.935,0.637-1.408,0.965
		l-0.302,0.208c-0.288,0.199-0.576,0.398-0.891,0.622l-0.691,0.503c-0.478,0.348-0.947,0.704-1.408,1.056l-0.506,0.382
		c-0.282,0.212-0.566,0.425-0.843,0.642l-0.451,0.358c-0.571,0.454-1.13,0.919-1.678,1.378l-0.459,0.379
		c-0.263,0.214-0.523,0.43-0.717,0.596l-0.269,0.231c-1.077,0.935-2.062,1.826-3.009,2.726c-2.61,2.479-3.943,5.959-3.659,9.548
		c0.086,1.088,0.319,2.151,0.695,3.169c-0.072,0.739-0.074,1.481-0.007,2.22c-0.989,1.322-1.693,2.838-2.066,4.447
		C11.98,180.107,11.258,181.201,10.695,182.353z"/>
	<g>
		<g>
			<g>
				<path style="fill:#4A0004;" d="M194.542,100.089l51.823,100.063l3.347,1.075L333,93.612c0,0,4.229-4.953-0.351-9.475
					L210.962,39.989L194.542,100.089z"/>
				<path style="fill:#7C0E1D;" d="M194.542,98.059l50.67,100.569l2.321,1.081l84.518-108.243c0,0,3.895-4.883,0.003-7.863
					L210.964,37.96L194.542,98.059z"/>
				<path style="fill:#7C0E1D;" d="M332.054,83.604l-2.757-1.04c1.067,1.346,1.953,2.836,2.119,4.52
					c0.255,2.585-1.23,4.552-2.933,6.337c-2.081,2.184-80.95,106.289-80.95,106.289l84.518-108.243
					C332.051,91.467,335.946,86.584,332.054,83.604z"/>
				<path style="fill:#912131;" d="M148.347,145.614l101.365,55.613l-108.869,64.462c0,0-3.496,1.762-6.585-0.718L22.674,191.808
					c0,0-4.003-1.826,0.973-5.054L148.347,145.614z"/>
				<path style="fill:#7C0E1D;" d="M142.861,259.795c-0.533,0.67-3.917,1.801-4.913,1.506c-2.655-0.785-4.695-2.634-7.141-3.821
					c-10.688-5.186-21.045-11.083-31.453-16.8l34.904,22.887c3.748,1.609,5.892,0.002,5.892,0.002l107.383-63.859L142.861,259.795z"
					/>
				<path style="fill:#B62436;" d="M138.792,259.93c3.88-2.799,26.766-18.439,107.768-60.764l-98.213-54.958l-124.7,41.141
					c-1.284,0.832-1.967,1.57-2.278,2.209c2.759,1.969,58.402,38.591,68.535,44.878c9.657,5.993,19.402,11.821,29.112,17.728
					c5.989,3.643,11.934,7.387,17.672,11.419C137.365,261.002,138.069,260.452,138.792,259.93z"/>
			</g>
			<path style="fill:#EDC49C;" d="M245.57,198.794c0,0-69.716,34.584-110.186,62.277L22.591,186.533l13.752-6.307L245.57,198.794z"
				/>
			<path style="opacity:0.5;fill:#EDC49C;" d="M245.57,198.794c0,0-85.969,37.796-110.186,62.277L22.591,186.533l13.752-6.307
				L245.57,198.794z"/>
			<path style="fill:#EDC49C;" d="M245.57,198.794c0,0-86.885,34.776-109.825,60.835L23.18,185.707l13.163-5.48L245.57,198.794z"/>
			<path style="opacity:0.5;fill:#EDC49C;" d="M245.57,198.794c0,0-81.878,24.451-109.39,58.093L25.768,184.632l10.574-4.405
				L245.57,198.794z"/>
			<g>
				<path style="fill:#EDC49C;" d="M318.22,82.441l11.309,4.574c0,0-43.455,50.256-83.958,111.778
					c-32.157,11.064-69.077,19.294-110.607,54.919c-70.012-42.077-110.545-71.947-110.545-71.947l10.158-12.123l100.435,57.451
					c0,0,24.007-41.457,91.956-43.922C224.995,126.214,263.129,88.034,318.22,82.441z"/>
				<path style="opacity:0.5;fill:#EDC49C;" d="M257.677,178.852c3.044-4.949,6.178-9.842,9.394-14.681
					c6.431-9.676,13.164-19.148,20.083-28.48c3.459-4.665,6.96-9.298,10.493-13.909c3.477-4.539,6.876-9.183,10.568-13.552
					c6.399-7.574,13.944-14.085,20.436-21.568l-10.431-4.22c-55.091,5.593-93.225,43.772-91.253,100.731
					c-67.949,2.465-91.956,43.922-91.956,43.922L34.576,169.643l-10.158,12.123c0,0,40.533,29.87,110.545,71.947
					c41.53-35.625,78.45-43.855,110.607-54.919c1.477-2.243,2.957-4.469,4.439-6.68
					C252.257,187.537,255.011,183.189,257.677,178.852z"/>
				<path style="fill:#EDC49C;" d="M317.561,79.36l11.073,4.994c0,0-48.41,47.594-83.064,114.439
					c-32.157,11.064-69.077,19.294-110.607,54.919c-70.012-42.077-110.545-71.947-110.545-71.947l10.158-12.123l100.435,57.451
					c0,0,24.007-41.457,91.956-43.922C224.995,126.214,262.472,84.952,317.561,79.36z"/>
				<path style="opacity:0.5;fill:#EDC49C;" d="M317.561,79.36l11.073,4.994c0,0-45.183,36.538-83.064,114.439
					c-32.157,11.064-69.077,19.294-110.607,54.919c-70.012-42.077-110.545-71.947-110.545-71.947l10.158-12.123l100.435,57.451
					c0,0,24.007-41.457,91.956-43.922C224.995,126.214,262.472,84.952,317.561,79.36z"/>
				<path style="fill:#EDC49C;" d="M317.561,79.36l8.992,4.992c0,0-47.789,39.881-80.983,114.441
					c-32.157,11.064-69.077,19.294-110.607,54.919c-70.012-42.077-110.545-71.947-110.545-71.947l10.158-12.123l100.435,57.451
					c0,0,24.007-41.457,91.956-43.922C224.995,126.214,262.472,84.952,317.561,79.36z"/>
				<path style="opacity:0.5;fill:#EDC49C;" d="M317.56,80.757l7.612,2.036c0,0-48.032,33.641-79.602,116.001
					c-27.607,5.357-82.205,25.159-109.009,50.081C67.759,205.85,27.073,178.47,27.073,178.47l7.503-8.827l100.435,57.451
					c0,0,24.007-41.457,91.956-43.922C224.995,126.214,262.471,86.35,317.56,80.757z"/>
				<path style="opacity:0.5;fill:#EDC49C;" d="M317.56,80.757c-55.089,5.593-92.564,45.457-90.593,102.415
					c-67.949,2.465-91.956,43.922-91.956,43.922L34.576,169.643l-5.479,6.343c4.233,2.829,7.76,5.803,11.853,8.829
					c4.656,3.44,93.028,58.572,96.403,60.442c35.79-29.495,81.674-41.313,108.217-46.463c0.075-0.196,0.15-0.389,0.227-0.584
					c0.757-3.321,1.896-6.561,3.188-9.71c1.898-4.63,4.157-9.099,6.083-13.715c2.24-5.368,4.586-10.694,7.08-15.949
					c4.784-10.08,10.335-19.684,16.797-28.784c6.435-9.062,13.558-17.634,21.215-25.687c3.938-4.141,8.021-8.073,12.36-11.794
					c3.857-3.308,7.226-7.314,11.517-10.081L317.56,80.757z"/>
				<path style="fill:#EDC49C;" d="M318.862,78.446l6.31,2.315c0,0-54.316,33.264-79.602,118.032
					c-43.847,3.724-81.736,23.01-109.007,45.077C78.342,210.237,26.74,173.581,26.74,173.581s4.502-7.118,11.999-11.238
					l93.65,61.501c0,0,44.987-39.698,105.315-33.298C237.733,137.71,270.626,94.131,318.862,78.446z"/>
				<path style="opacity:0.5;fill:#EDC49C;" d="M318.862,78.446l6.31,2.315c0,0-61.678,24.276-79.602,118.032
					c-43.847,3.724-81.736,23.01-109.007,45.077C78.342,210.237,26.74,173.581,26.74,173.581s4.502-7.118,11.999-11.238
					l93.65,61.501c0,0,44.987-39.698,105.315-33.298C237.733,137.71,270.626,94.131,318.862,78.446z"/>
				<g>
					<path style="fill:#F6EEE7;" d="M26.063,168.321c44.875,30.813,109.886,72.603,109.886,72.603s54.943-41.206,109.622-42.13
						l-98.526-55.133C111.075,133.649,56.053,139.856,26.063,168.321z"/>
					<path style="opacity:0.5;fill:#EDC49C;" d="M232.073,199.452c-3.092,0.117-6.186,0.327-9.248,0.777
						c-2.955,0.434-5.871,1.094-8.789,1.725c-5.761,1.243-11.504,2.56-17.218,4.004c-1.278,0.323-2.555,0.654-3.83,0.989
						c-15.25,4.765-31.654,10.432-38.104,12.711c-5.372,1.899-10.728,3.213-16.45,2.472c-5.136-0.667-66.385-37.455-76.963-44.565
						c-2.405-1.616-4.791-3.262-7.107-5.003c-1.811-1.36-3.63-2.763-5.158-4.442c-2.876-3.159-4.24-7.132-2.117-11.127
						c1.007-1.898,2.3-3.609,3.77-5.163c-9.271,4.313-17.728,9.784-24.796,16.492c44.875,30.813,109.886,72.603,109.886,72.603
						s48.661-36.489,99.969-41.559C234.635,199.381,233.355,199.403,232.073,199.452z"/>
					<path style="fill:#EDC49C;" d="M143.809,235.139c-1.124,0.389-2.258,0.798-3.457,0.861c-2.284,0.121-4.354-0.721-6.361-1.724
						c-2.528-1.266-5.028-2.585-7.494-3.967c-10.028-5.617-19.571-12.029-29.231-18.242c-9.861-6.341-20.029-12.182-29.887-18.532
						c-4.958-3.195-9.874-6.456-14.741-9.788c-2.556-1.749-5.24-3.282-7.85-4.95c-2.919-1.867-5.881-3.866-8.269-6.403
						c-1.71-1.816-3.53-4.305-2.993-6.96c0.698-3.445,3.975-6.046,6.782-7.806c2.706-1.696,5.66-3.031,8.359-4.747
						c-8.412,4.142-16.1,9.266-22.605,15.441c44.875,30.813,109.886,72.603,109.886,72.603s3.314-2.483,9.115-6.242
						C144.646,234.837,144.23,234.994,143.809,235.139z"/>
					<path style="fill:#F6E1CC;" d="M325.174,77.568C251.243,47.553,200.07,29.211,200.07,29.211s-41.991,32.51-53.026,114.45
						l98.526,55.133C247.547,166.497,258.59,102.83,325.174,77.568z"/>
					<path style="fill:#FFFFFF;" d="M310.806,83.64c-5.548,2.168-10.796,5.051-15.728,8.384c-4.579,3.095-8.938,6.549-12.893,10.413
						c-3.692,3.609-7.53,7.25-10.35,11.571c-18.152,27.823-21.716,49.788-22.324,55.623c6.517-30.066,22.872-66.699,64.251-87.105
						C312.774,82.889,311.786,83.257,310.806,83.64z"/>
					<path style="opacity:0.5;fill:#EDC49C;" d="M243.884,188.905c-0.742-9.162-0.391-18.407,0.911-27.504
						c1.471-10.273,4.104-20.368,7.957-30.007c3.819-9.555,9.111-18.49,15.425-26.606c3.229-4.151,6.707-8.111,10.426-11.83
						c3.748-3.747,7.889-7.077,12.225-10.118c6-4.209,12.332-7.889,18.635-11.615C244.094,44.99,200.07,29.211,200.07,29.211
						s-41.991,32.51-53.026,114.45l98.081,54.885C244.559,195.355,244.145,192.136,243.884,188.905z"/>
				</g>
			</g>
		</g>
		<g>
			<path style="fill:#F6EEE7;" d="M292.438,69.841c-73.932-30.016-130.981-50.405-130.981-50.405s-41.208,51.508-14.413,124.225
				l98.526,55.133C237.739,176.415,235.325,108.32,292.438,69.841z"/>
			<path style="fill:#F6E1CC;" d="M145.206,58.705c2.986-7.237,5.626-14.817,10.453-21.088c2.162-2.807,4.898-5.348,8.4-6.277
				c4.355-1.153,8.994-0.628,13.36,0.188c4.585,0.857,9.085,2.1,13.674,2.935c5.765,1.05,39.472,11.411,50.453,15.665
				c11.296,4.376,22.671,8.551,33.973,12.91c0.43,0.166,0.858,0.333,1.287,0.498c-66.189-26.529-115.35-44.098-115.35-44.098
				s-17.28,21.601-22.184,56.574C140.852,70.115,142.876,64.348,145.206,58.705z"/>
			<path style="opacity:0.5;fill:#EDC49C;" d="M282.921,74.138c-5.527,3.663-10.764,7.915-15.544,12.51
				c-7.305,7.024-13.229,15.314-17.952,24.261c-4.467,8.462-7.887,17.365-11.02,26.388c-2.104,6.063-4.545,13.426-10.416,16.885
				c-3.08,1.814-6.694,2.25-10.205,1.814c-5.238-0.649-10.462-2.339-15.414-4.115c-10.471-3.754-20.408-8.836-30.12-14.222
				c-7.827-4.34-15.237-9.262-20.729-16.47c-2.622-3.443-4.764-7.234-6.357-11.258c-2.043-5.155-3.678-10.564-4.987-15.951
				c-0.811-3.333-1.436-6.666-1.773-10.037c-1.375,17.365,0.475,37.556,8.641,59.718l98.526,55.133
				c-7.831-22.378-10.245-90.474,46.868-128.953c-0.373-0.152-0.746-0.303-1.118-0.456
				C288.374,70.724,285.563,72.386,282.921,74.138z"/>
			<path style="fill:#F6EEE7;" d="M245.712,130.547c-9.197,33.85-2.023,59.605-2.023,59.605c-2.76-17.109-4.047-41.393,7.727-71.193
				c11.773-29.802,37.712-46.911,37.712-46.911C276.617,79.406,254.909,96.699,245.712,130.547z"/>
		</g>
	</g>
</g>
</svg>
